<svg width="37" height="49" viewBox="0 0 37 49" fill="none" xmlns="http://www.w3.org/2000/svg">
<g filter="url(#filter0_d_79_2829)">
<mask id="path-1-outside-1_79_2829" maskUnits="userSpaceOnUse" x="4.33276" y="0.288818" width="28" height="41" fill="black">
<rect fill="white" x="4.33276" y="0.288818" width="28" height="41"/>
<path fill-rule="evenodd" clip-rule="evenodd" d="M28.7564 21.6009C30.2381 19.5022 31.1084 16.9411 31.1084 14.1767C31.1084 7.0589 25.3383 1.28882 18.2206 1.28882C11.1028 1.28882 5.33276 7.0589 5.33276 14.1767C5.33276 16.4534 5.92312 18.5922 6.9591 20.4484L6.93451 20.4483L18.2203 38.702L28.7564 21.6009Z"/>
</mask>
<path fill-rule="evenodd" clip-rule="evenodd" d="M28.7564 21.6009C30.2381 19.5022 31.1084 16.9411 31.1084 14.1767C31.1084 7.0589 25.3383 1.28882 18.2206 1.28882C11.1028 1.28882 5.33276 7.0589 5.33276 14.1767C5.33276 16.4534 5.92312 18.5922 6.9591 20.4484L6.93451 20.4483L18.2203 38.702L28.7564 21.6009Z" fill="white"/>
<path d="M28.7564 21.6009L27.9395 21.0242L27.9214 21.0498L27.905 21.0764L28.7564 21.6009ZM6.9591 20.4484L6.95367 21.4484L8.66761 21.4577L7.83231 19.9611L6.9591 20.4484ZM6.93451 20.4483L6.93993 19.4483L5.13449 19.4385L6.08395 20.9742L6.93451 20.4483ZM18.2203 38.702L17.3697 39.2279L18.2218 40.606L19.0717 39.2265L18.2203 38.702ZM30.1084 14.1767C30.1084 16.7279 29.3059 19.0887 27.9395 21.0242L29.5734 22.1777C31.1702 19.9157 32.1084 17.1543 32.1084 14.1767H30.1084ZM18.2206 2.28882C24.7861 2.28882 30.1084 7.61118 30.1084 14.1767H32.1084C32.1084 6.50661 25.8906 0.288818 18.2206 0.288818V2.28882ZM6.33276 14.1767C6.33276 7.61118 11.6551 2.28882 18.2206 2.28882V0.288818C10.5506 0.288818 4.33276 6.50661 4.33276 14.1767H6.33276ZM7.83231 19.9611C6.87733 18.25 6.33276 16.2784 6.33276 14.1767H4.33276C4.33276 16.6283 4.96891 18.9344 6.0859 20.9358L7.83231 19.9611ZM6.92908 21.4483L6.95367 21.4484L6.96453 19.4484L6.93993 19.4483L6.92908 21.4483ZM19.0708 38.1761L7.78507 19.9224L6.08395 20.9742L17.3697 39.2279L19.0708 38.1761ZM27.905 21.0764L17.3689 38.1775L19.0717 39.2265L29.6078 22.1255L27.905 21.0764Z" fill="#D9D9D9" mask="url(#path-1-outside-1_79_2829)"/>
<path d="M18.2206 6.37427C14.6743 6.37427 11.802 6.77543 11.802 9.58358V17.6069C11.802 18.3129 12.1149 18.9468 12.6043 19.388V20.8162C12.6043 21.2575 12.9654 21.6185 13.4067 21.6185H14.209C14.6503 21.6185 15.0113 21.2575 15.0113 20.8162V20.0139H21.4299V20.8162C21.4299 21.2575 21.791 21.6185 22.2323 21.6185H23.0346C23.4759 21.6185 23.8369 21.2575 23.8369 20.8162V19.388C24.3264 18.9468 24.6393 18.3129 24.6393 17.6069V9.58358C24.6393 6.77543 21.7669 6.37427 18.2206 6.37427ZM22.7618 8.77323H13.6795C14.1207 8.348 15.26 7.97893 18.2206 7.97893C21.1812 7.97893 22.3205 8.348 22.7618 8.77323ZM23.0346 10.3779V12.7929H13.4067V10.3779H23.0346ZM22.7618 18.1926L22.5291 18.4092H13.9121L13.6795 18.1926C13.5751 18.1043 13.4067 17.9037 13.4067 17.6069V14.3976H23.0346V17.6069C23.0346 17.9037 22.8661 18.1043 22.7618 18.1926Z" fill="#004099"/>
<path d="M15.4125 17.6069C16.0772 17.6069 16.616 17.0681 16.616 16.4034C16.616 15.7387 16.0772 15.1999 15.4125 15.1999C14.7478 15.1999 14.209 15.7387 14.209 16.4034C14.209 17.0681 14.7478 17.6069 15.4125 17.6069Z" fill="#004099"/>
<path d="M21.0288 17.6069C21.6935 17.6069 22.2323 17.0681 22.2323 16.4034C22.2323 15.7387 21.6935 15.1999 21.0288 15.1999C20.3641 15.1999 19.8253 15.7387 19.8253 16.4034C19.8253 17.0681 20.3641 17.6069 21.0288 17.6069Z" fill="#004099"/>
</g>
<defs>
<filter id="filter0_d_79_2829" x="0.332764" y="0.288818" width="35.7756" height="48.3172" filterUnits="userSpaceOnUse" color-interpolation-filters="sRGB">
<feFlood flood-opacity="0" result="BackgroundImageFix"/>
<feColorMatrix in="SourceAlpha" type="matrix" values="0 0 0 0 0 0 0 0 0 0 0 0 0 0 0 0 0 0 127 0" result="hardAlpha"/>
<feOffset dy="4"/>
<feGaussianBlur stdDeviation="2"/>
<feComposite in2="hardAlpha" operator="out"/>
<feColorMatrix type="matrix" values="0 0 0 0 0 0 0 0 0 0 0 0 0 0 0 0 0 0 0.25 0"/>
<feBlend mode="normal" in2="BackgroundImageFix" result="effect1_dropShadow_79_2829"/>
<feBlend mode="normal" in="SourceGraphic" in2="effect1_dropShadow_79_2829" result="shape"/>
</filter>
</defs>
</svg>
