<svg width="361" height="439" viewBox="0 0 361 439" fill="none" xmlns="http://www.w3.org/2000/svg">
<path d="M28.473 138.362L46.256 69.224L85.59 29.512L281.637 30.262L312.827 68.849L335.004 143.653L338.208 339.006L28.68 328.409L28.474 138.362H28.473Z" fill="white"/>
<path d="M28.473 138.362L46.256 69.224L85.59 29.512L281.637 30.262L312.827 68.849L335.004 143.653L338.208 339.006L28.68 328.409L28.474 138.362H28.473Z" fill="url(#paint0_linear_906_2733)"/>
<path d="M48.577 435.746C44.032 433.78 38.949 428.864 36.267 423.838C34.364 420.275 34.09 417.871 33.754 401.838C33.5 389.746 32.999 383.597 32.226 383.103C31.594 382.699 24.876 382.362 17.297 382.353L3.51703 382.338L3.81503 288.588L4.11203 194.838L12.804 129.838C17.584 94.088 22.183 62.555 23.023 59.764C25.273 52.286 31.661 43.094 38.263 37.836C45.023 32.453 62.578 23.696 74.077 19.973C84.689 16.536 103.943 11.963 120.577 8.929C165.694 0.699002 202.543 1.121 250.198 10.413C304.693 21.038 331.892 35.747 339.539 58.726C340.919 62.874 344.417 86.608 350.09 130.327L358.577 195.723V382.338L345.327 382.353C338.039 382.362 331.56 382.699 330.928 383.103C330.163 383.593 329.644 389.673 329.37 401.338C328.894 421.618 327.918 425.107 321.02 431.178C307.752 442.858 284.495 437.361 279.718 421.416C279.068 419.247 278.577 410.686 278.577 401.543C278.577 388.274 278.303 385.207 277.005 383.909C275.599 382.503 265.568 382.338 181.577 382.338C97.585 382.338 87.554 382.503 86.148 383.909C84.846 385.211 84.575 388.339 84.567 402.159C84.557 417.59 84.381 419.212 82.199 423.838C79.389 429.796 76.624 432.512 70.577 435.254C65.066 437.752 53.798 438.004 48.577 435.746ZM67.667 323.966C77.132 320.583 83.719 311.188 83.719 301.071C83.719 287.001 73.213 276.338 59.349 276.338C52.457 276.338 48.292 277.893 43.195 282.368C37.374 287.479 35.136 292.608 35.136 300.838C35.136 308.612 37.203 313.764 42.235 318.528C48.685 324.636 59.39 326.925 67.667 323.967V323.966ZM314.64 322.588C332.715 313.421 332.715 288.254 314.64 279.088C301.834 272.593 286.318 278.21 280.803 291.338C278.561 296.676 278.904 306.318 281.53 311.741C287.422 323.913 302.37 328.811 314.64 322.588ZM316.638 213.326C319.572 212.77 322.983 211.366 324.218 210.206C326.697 207.876 328.612 200.5 327.948 195.838C327.713 194.188 324.413 170.492 320.616 143.181C313.506 92.045 312.736 88.503 307.749 83.993C302.603 79.338 305.049 79.428 182.269 79.382C99.196 79.35 65.191 79.658 61.964 80.471C56.074 81.954 51.96 86.186 50.116 92.657C47.641 101.347 34.425 199.012 35.18 203.037C36.182 208.381 40.38 212.519 45.665 213.374C52.835 214.534 310.512 214.488 316.638 213.326ZM257.077 57.363C261.692 56.294 264.25 53.597 265.137 48.863C265.93 44.638 263.391 39.03 259.981 37.476C258.181 36.656 236.051 36.344 180.78 36.36C109.615 36.38 103.923 36.507 101.944 38.11C97.235 41.924 96.304 47.739 99.549 53.061C100.719 54.981 102.639 56.533 104.296 56.899C105.826 57.236 107.526 57.663 108.076 57.846C110.526 58.663 253.466 58.2 257.076 57.363H257.077Z" fill="#D85B53"/>
<path d="M48.577 435.746C44.032 433.78 38.949 428.864 36.267 423.838C34.364 420.275 34.09 417.871 33.754 401.838C33.5 389.746 32.999 383.597 32.226 383.103C31.594 382.699 24.876 382.362 17.297 382.353L3.51697 382.338L3.81497 288.588L4.11197 194.838L12.804 129.838C17.584 94.088 22.183 62.555 23.023 59.764C25.273 52.286 31.661 43.094 38.263 37.836C45.023 32.453 62.578 23.696 74.077 19.973C84.689 16.536 103.943 11.963 120.577 8.929C165.694 0.699002 202.543 1.121 250.198 10.413C304.693 21.038 331.892 35.747 339.539 58.726C340.919 62.874 344.417 86.608 350.09 130.327L358.577 195.723V382.338L345.327 382.353C338.039 382.362 331.56 382.699 330.928 383.103C330.163 383.593 329.644 389.673 329.37 401.338C328.894 421.618 327.918 425.107 321.02 431.178C307.752 442.858 284.495 437.361 279.718 421.416C279.068 419.247 278.577 410.686 278.577 401.543C278.577 388.274 278.303 385.207 277.005 383.909C275.599 382.503 265.568 382.338 181.577 382.338C97.585 382.338 87.554 382.503 86.148 383.909C84.846 385.211 84.575 388.339 84.567 402.159C84.557 417.59 84.381 419.212 82.199 423.838C79.389 429.796 76.624 432.512 70.577 435.254C65.066 437.752 53.798 438.004 48.577 435.746ZM67.667 323.966C77.132 320.583 83.719 311.188 83.719 301.071C83.719 287.001 73.213 276.338 59.349 276.338C52.457 276.338 48.292 277.893 43.195 282.368C37.374 287.479 35.136 292.608 35.136 300.838C35.136 308.612 37.203 313.764 42.235 318.528C48.685 324.636 59.39 326.925 67.667 323.967V323.966ZM314.64 322.588C332.715 313.421 332.715 288.254 314.64 279.088C301.834 272.593 286.318 278.21 280.803 291.338C278.561 296.676 278.904 306.318 281.53 311.741C287.422 323.913 302.37 328.811 314.64 322.588ZM316.638 213.326C319.572 212.77 322.983 211.366 324.218 210.206C326.697 207.876 328.612 200.5 327.948 195.838C327.713 194.188 324.413 170.492 320.616 143.181C313.506 92.045 312.736 88.503 307.749 83.993C302.603 79.338 305.049 79.428 182.269 79.382C99.196 79.35 65.191 79.658 61.964 80.471C56.074 81.954 51.96 86.186 50.116 92.657C47.641 101.347 34.425 199.012 35.18 203.037C36.182 208.381 40.38 212.519 45.665 213.374C52.835 214.534 310.512 214.488 316.638 213.326ZM257.077 57.363C261.692 56.294 264.25 53.597 265.137 48.863C265.93 44.638 263.391 39.03 259.981 37.476C258.181 36.656 236.051 36.344 180.78 36.36C109.615 36.38 103.923 36.507 101.944 38.11C97.235 41.924 96.304 47.739 99.549 53.061C100.719 54.981 102.639 56.533 104.296 56.899C105.826 57.236 107.526 57.663 108.076 57.846C110.526 58.663 253.466 58.2 257.076 57.363H257.077Z" fill="#969696"/>
<defs>
<linearGradient id="paint0_linear_906_2733" x1="195.5" y1="275" x2="195.5" y2="30" gradientUnits="userSpaceOnUse">
<stop stop-color="#8ACFF8"/>
<stop offset="1" stop-color="#8ACFF8" stop-opacity="0.2"/>
</linearGradient>
</defs>
</svg>
