<svg width="37" height="50" viewBox="0 0 37 50" fill="none" xmlns="http://www.w3.org/2000/svg">
<g filter="url(#filter0_di_79_3475)">
<mask id="path-1-outside-1_79_3475" maskUnits="userSpaceOnUse" x="4.98853" y="0.758423" width="28" height="41" fill="black">
<rect fill="white" x="4.98853" y="0.758423" width="28" height="41"/>
<path fill-rule="evenodd" clip-rule="evenodd" d="M29.4122 22.0705C30.8938 19.9718 31.7642 17.4107 31.7642 14.6463C31.7642 7.5285 25.9941 1.75842 18.8764 1.75842C11.7586 1.75842 5.98853 7.5285 5.98853 14.6463C5.98853 16.923 6.57888 19.0618 7.61486 20.918L7.59027 20.9179L18.876 39.1716L29.4122 22.0705Z"/>
</mask>
<path fill-rule="evenodd" clip-rule="evenodd" d="M29.4122 22.0705C30.8938 19.9718 31.7642 17.4107 31.7642 14.6463C31.7642 7.5285 25.9941 1.75842 18.8764 1.75842C11.7586 1.75842 5.98853 7.5285 5.98853 14.6463C5.98853 16.923 6.57888 19.0618 7.61486 20.918L7.59027 20.9179L18.876 39.1716L29.4122 22.0705Z" fill="#004099"/>
<path d="M29.4122 22.0705L28.5952 21.4938L28.5772 21.5194L28.5608 21.546L29.4122 22.0705ZM7.61486 20.918L7.60944 21.918L9.32337 21.9273L8.48807 20.4307L7.61486 20.918ZM7.59027 20.9179L7.5957 19.9179L5.79025 19.9081L6.73971 21.4438L7.59027 20.9179ZM18.876 39.1716L18.0255 39.6975L18.8775 41.0756L19.7274 39.6961L18.876 39.1716ZM30.7642 14.6463C30.7642 17.1975 29.9617 19.5583 28.5952 21.4938L30.2291 22.6473C31.826 20.3853 32.7642 17.6239 32.7642 14.6463H30.7642ZM18.8764 2.75842C25.4418 2.75842 30.7642 8.08079 30.7642 14.6463H32.7642C32.7642 6.97622 26.5464 0.758423 18.8764 0.758423V2.75842ZM6.98853 14.6463C6.98853 8.08079 12.3109 2.75842 18.8764 2.75842V0.758423C11.2063 0.758423 4.98853 6.97622 4.98853 14.6463H6.98853ZM8.48807 20.4307C7.53309 18.7196 6.98853 16.748 6.98853 14.6463H4.98853C4.98853 17.0979 5.62467 19.404 6.74166 21.4054L8.48807 20.4307ZM7.58484 21.9179L7.60944 21.918L7.62029 19.918L7.5957 19.9179L7.58484 21.9179ZM19.7266 38.6457L8.44083 20.392L6.73971 21.4438L18.0255 39.6975L19.7266 38.6457ZM28.5608 21.546L18.0247 38.6471L19.7274 39.6961L30.2636 22.5951L28.5608 21.546Z" fill="#00096B" mask="url(#path-1-outside-1_79_3475)"/>
<path d="M18.8764 6.84387C15.3301 6.84387 12.4578 7.24504 12.4578 10.0532V18.0765C12.4578 18.7825 12.7707 19.4164 13.2601 19.8576V21.2858C13.2601 21.7271 13.6211 22.0881 14.0624 22.0881H14.8647C15.306 22.0881 15.6671 21.7271 15.6671 21.2858V20.4835H22.0857V21.2858C22.0857 21.7271 22.4468 22.0881 22.888 22.0881H23.6904C24.1316 22.0881 24.4927 21.7271 24.4927 21.2858V19.8576C24.9821 19.4164 25.295 18.7825 25.295 18.0765V10.0532C25.295 7.24504 22.4227 6.84387 18.8764 6.84387ZM23.4176 9.24284H14.3352C14.7765 8.8176 15.9158 8.44853 18.8764 8.44853C21.837 8.44853 22.9763 8.8176 23.4176 9.24284ZM23.6904 10.8475V13.2625H14.0624V10.8475H23.6904ZM23.4176 18.6622L23.1849 18.8788H14.5679L14.3352 18.6622C14.2309 18.5739 14.0624 18.3733 14.0624 18.0765V14.8672H23.6904V18.0765C23.6904 18.3733 23.5219 18.5739 23.4176 18.6622Z" fill="#F9FCFF"/>
<path d="M16.0682 18.0765C16.7329 18.0765 17.2717 17.5377 17.2717 16.873C17.2717 16.2083 16.7329 15.6695 16.0682 15.6695C15.4036 15.6695 14.8647 16.2083 14.8647 16.873C14.8647 17.5377 15.4036 18.0765 16.0682 18.0765Z" fill="#F9FCFF"/>
<path d="M21.6845 18.0765C22.3492 18.0765 22.888 17.5377 22.888 16.873C22.888 16.2083 22.3492 15.6695 21.6845 15.6695C21.0199 15.6695 20.481 16.2083 20.481 16.873C20.481 17.5377 21.0199 18.0765 21.6845 18.0765Z" fill="#F9FCFF"/>
</g>
<defs>
<filter id="filter0_di_79_3475" x="0.988525" y="-0.241577" width="35.7757" height="49.3171" filterUnits="userSpaceOnUse" color-interpolation-filters="sRGB">
<feFlood flood-opacity="0" result="BackgroundImageFix"/>
<feColorMatrix in="SourceAlpha" type="matrix" values="0 0 0 0 0 0 0 0 0 0 0 0 0 0 0 0 0 0 127 0" result="hardAlpha"/>
<feOffset dy="4"/>
<feGaussianBlur stdDeviation="2"/>
<feComposite in2="hardAlpha" operator="out"/>
<feColorMatrix type="matrix" values="0 0 0 0 0 0 0 0 0 0 0 0 0 0 0 0 0 0 0.25 0"/>
<feBlend mode="normal" in2="BackgroundImageFix" result="effect1_dropShadow_79_3475"/>
<feBlend mode="normal" in="SourceGraphic" in2="effect1_dropShadow_79_3475" result="shape"/>
<feColorMatrix in="SourceAlpha" type="matrix" values="0 0 0 0 0 0 0 0 0 0 0 0 0 0 0 0 0 0 127 0" result="hardAlpha"/>
<feOffset dy="-5"/>
<feGaussianBlur stdDeviation="0.5"/>
<feComposite in2="hardAlpha" operator="arithmetic" k2="-1" k3="1"/>
<feColorMatrix type="matrix" values="0 0 0 0 0 0 0 0 0 0 0 0 0 0 0 0 0 0 0.25 0"/>
<feBlend mode="normal" in2="shape" result="effect2_innerShadow_79_3475"/>
</filter>
</defs>
</svg>
