<svg width="32" height="43" viewBox="0 0 32 43" fill="none" xmlns="http://www.w3.org/2000/svg">
<g filter="url(#filter0_d_189_2539)">
<mask id="path-1-outside-1_189_2539" maskUnits="userSpaceOnUse" x="4" y="0" width="24" height="35" fill="black">
<rect fill="white" x="4" width="24" height="35"/>
<path fill-rule="evenodd" clip-rule="evenodd" d="M24.9924 18.3734C26.2571 16.5782 27 14.3876 27 12.0231C27 5.93523 22.0751 1 16 1C9.92487 1 5 5.93523 5 12.0231C5 13.9704 5.50388 15.7998 6.3881 17.3875L6.36712 17.3873L15.9997 33L24.9924 18.3734Z"/>
</mask>
<path fill-rule="evenodd" clip-rule="evenodd" d="M24.9924 18.3734C26.2571 16.5782 27 14.3876 27 12.0231C27 5.93523 22.0751 1 16 1C9.92487 1 5 5.93523 5 12.0231C5 13.9704 5.50388 15.7998 6.3881 17.3875L6.36712 17.3873L15.9997 33L24.9924 18.3734Z" fill="white"/>
<path d="M24.9924 18.3734L24.1749 17.7974L24.1569 17.823L24.1406 17.8496L24.9924 18.3734ZM6.3881 17.3875L6.38264 18.3874L8.09486 18.3968L7.26174 16.9009L6.3881 17.3875ZM6.36712 17.3873L6.37257 16.3874L4.56907 16.3775L5.51606 17.9124L6.36712 17.3873ZM15.9997 33L15.1487 33.5251L16.0012 34.9069L16.8516 33.5237L15.9997 33ZM26 12.0231C26 14.1749 25.3246 16.1655 24.1749 17.7974L25.8099 18.9493C27.1896 16.991 28 14.6003 28 12.0231H26ZM16 2C21.5209 2 26 6.48553 26 12.0231H28C28 5.38493 22.6294 0 16 0V2ZM6 12.0231C6 6.48553 10.4791 2 16 2V0C9.3706 0 4 5.38493 4 12.0231H6ZM7.26174 16.9009C6.45829 15.4583 6 13.7959 6 12.0231H4C4 14.145 4.54946 16.1413 5.51446 17.874L7.26174 16.9009ZM6.36166 18.3873L6.38264 18.3874L6.39355 16.3875L6.37257 16.3874L6.36166 18.3873ZM16.8508 32.4749L7.21817 16.8623L5.51606 17.9124L15.1487 33.5251L16.8508 32.4749ZM24.1406 17.8496L15.1479 32.4763L16.8516 33.5237L25.8443 18.8971L24.1406 17.8496Z" fill="#D9D9D9" mask="url(#path-1-outside-1_189_2539)"/>
<path d="M16.0001 5.34965C12.9732 5.34965 10.5216 5.69277 10.5216 8.09462V14.9571C10.5216 15.5609 10.7887 16.1031 11.2064 16.4805V17.702C11.2064 18.0795 11.5146 18.3883 11.8912 18.3883H12.576C12.9527 18.3883 13.2608 18.0795 13.2608 17.702V17.0158H18.7393V17.702C18.7393 18.0795 19.0474 18.3883 19.4241 18.3883H20.1089C20.4855 18.3883 20.7937 18.0795 20.7937 17.702V16.4805C21.2114 16.1031 21.4785 15.5609 21.4785 14.9571V8.09462C21.4785 5.69277 19.0269 5.34965 16.0001 5.34965ZM19.876 7.40151H12.1241C12.5007 7.03781 13.4731 6.72213 16.0001 6.72213C18.527 6.72213 19.4994 7.03781 19.876 7.40151ZM20.1089 8.774V10.8396H11.8912V8.774H20.1089ZM19.876 15.458L19.6774 15.6433H12.3227L12.1241 15.458C12.0351 15.3825 11.8912 15.211 11.8912 14.9571V12.2121H20.1089V14.9571C20.1089 15.211 19.9651 15.3825 19.876 15.458Z" fill="#004099"/>
<path d="M13.6032 14.9571C14.1706 14.9571 14.6305 14.4962 14.6305 13.9277C14.6305 13.3592 14.1706 12.8983 13.6032 12.8983C13.0359 12.8983 12.576 13.3592 12.576 13.9277C12.576 14.4962 13.0359 14.9571 13.6032 14.9571Z" fill="#004099"/>
<path d="M18.3969 14.9571C18.9642 14.9571 19.4241 14.4962 19.4241 13.9277C19.4241 13.3592 18.9642 12.8983 18.3969 12.8983C17.8296 12.8983 17.3697 13.3592 17.3697 13.9277C17.3697 14.4962 17.8296 14.9571 18.3969 14.9571Z" fill="#004099"/>
</g>
<defs>
<filter id="filter0_d_189_2539" x="0" y="0" width="32" height="42.9069" filterUnits="userSpaceOnUse" color-interpolation-filters="sRGB">
<feFlood flood-opacity="0" result="BackgroundImageFix"/>
<feColorMatrix in="SourceAlpha" type="matrix" values="0 0 0 0 0 0 0 0 0 0 0 0 0 0 0 0 0 0 127 0" result="hardAlpha"/>
<feOffset dy="4"/>
<feGaussianBlur stdDeviation="2"/>
<feComposite in2="hardAlpha" operator="out"/>
<feColorMatrix type="matrix" values="0 0 0 0 0 0 0 0 0 0 0 0 0 0 0 0 0 0 0.25 0"/>
<feBlend mode="normal" in2="BackgroundImageFix" result="effect1_dropShadow_189_2539"/>
<feBlend mode="normal" in="SourceGraphic" in2="effect1_dropShadow_189_2539" result="shape"/>
</filter>
</defs>
</svg>
