<svg width="37" height="49" viewBox="0 0 37 49" fill="none" xmlns="http://www.w3.org/2000/svg">
<g filter="url(#filter0_di_137_341)">
<mask id="path-1-outside-1_137_341" maskUnits="userSpaceOnUse" x="4.61217" y="0" width="28" height="41" fill="black">
<rect fill="white" x="4.61217" width="28" height="41"/>
<path fill-rule="evenodd" clip-rule="evenodd" d="M29.0358 21.6307C30.5175 19.499 31.3878 16.8977 31.3878 14.09C31.3878 6.86058 25.6178 1 18.5 1C11.3822 1 5.61217 6.86058 5.61217 14.09C5.61217 16.4024 6.20252 18.5748 7.23851 20.4601L7.21391 20.46L18.4997 39L29.0358 21.6307Z"/>
</mask>
<path fill-rule="evenodd" clip-rule="evenodd" d="M29.0358 21.6307C30.5175 19.499 31.3878 16.8977 31.3878 14.09C31.3878 6.86058 25.6178 1 18.5 1C11.3822 1 5.61217 6.86058 5.61217 14.09C5.61217 16.4024 6.20252 18.5748 7.23851 20.4601L7.21391 20.46L18.4997 39L29.0358 21.6307Z" fill="#004099"/>
<path d="M29.0358 21.6307L28.2147 21.06L28.197 21.0855L28.1808 21.1121L29.0358 21.6307ZM7.23851 20.4601L7.233 21.4601L8.93417 21.4694L8.11491 19.9785L7.23851 20.4601ZM7.21391 20.46L7.21941 19.46L5.42849 19.4501L6.35972 20.9799L7.21391 20.46ZM18.4997 39L17.6455 39.5199L18.5012 40.9256L19.3547 39.5186L18.4997 39ZM30.3878 14.09C30.3878 16.6882 29.583 19.0913 28.2147 21.06L29.857 22.2014C31.4519 19.9068 32.3878 17.1072 32.3878 14.09H30.3878ZM18.5 2C25.0509 2 30.3878 7.39813 30.3878 14.09H32.3878C32.3878 6.32302 26.1847 0 18.5 0V2ZM6.61217 14.09C6.61217 7.39813 11.9491 2 18.5 2V0C10.8153 0 4.61217 6.32302 4.61217 14.09H6.61217ZM8.11491 19.9785C7.15824 18.2375 6.61217 16.2304 6.61217 14.09H4.61217C4.61217 16.5744 5.24681 18.912 6.3621 20.9417L8.11491 19.9785ZM7.2084 21.4599L7.233 21.4601L7.24401 19.4601L7.21941 19.46L7.2084 21.4599ZM19.3539 38.48L8.0681 19.94L6.35972 20.9799L17.6455 39.5199L19.3539 38.48ZM28.1808 21.1121L17.6447 38.4813L19.3547 39.5186L29.8908 22.1493L28.1808 21.1121Z" fill="#00096B" mask="url(#path-1-outside-1_137_341)"/>
<path d="M18.5 6.16522C14.9537 6.16522 12.0814 6.57268 12.0814 9.42487V17.574C12.0814 18.2911 12.3943 18.9349 12.8837 19.3831V20.8337C12.8837 21.2819 13.2448 21.6486 13.6861 21.6486H14.4884C14.9297 21.6486 15.2907 21.2819 15.2907 20.8337V20.0187H21.7093V20.8337C21.7093 21.2819 22.0704 21.6486 22.5117 21.6486H23.314C23.7553 21.6486 24.1163 21.2819 24.1163 20.8337V19.3831C24.6058 18.9349 24.9187 18.2911 24.9187 17.574V9.42487C24.9187 6.57268 22.0463 6.16522 18.5 6.16522ZM23.0412 8.60181H13.9588C14.4001 8.16991 15.5394 7.79505 18.5 7.79505C21.4606 7.79505 22.5999 8.16991 23.0412 8.60181ZM23.314 10.2316V12.6845H13.6861V10.2316H23.314ZM23.0412 18.1689L22.8085 18.3889H14.1915L13.9588 18.1689C13.8545 18.0792 13.6861 17.8755 13.6861 17.574V14.3143H23.314V17.574C23.314 17.8755 23.1455 18.0792 23.0412 18.1689Z" fill="#F9FCFF"/>
<path d="M15.6919 17.574C16.3565 17.574 16.8954 17.0267 16.8954 16.3516C16.8954 15.6765 16.3565 15.1293 15.6919 15.1293C15.0272 15.1293 14.4884 15.6765 14.4884 16.3516C14.4884 17.0267 15.0272 17.574 15.6919 17.574Z" fill="#F9FCFF"/>
<path d="M21.3082 17.574C21.9729 17.574 22.5117 17.0267 22.5117 16.3516C22.5117 15.6765 21.9729 15.1293 21.3082 15.1293C20.6435 15.1293 20.1047 15.6765 20.1047 16.3516C20.1047 17.0267 20.6435 17.574 21.3082 17.574Z" fill="#F9FCFF"/>
</g>
<defs>
<filter id="filter0_di_137_341" x="0.612167" y="-1" width="35.7757" height="49.9256" filterUnits="userSpaceOnUse" color-interpolation-filters="sRGB">
<feFlood flood-opacity="0" result="BackgroundImageFix"/>
<feColorMatrix in="SourceAlpha" type="matrix" values="0 0 0 0 0 0 0 0 0 0 0 0 0 0 0 0 0 0 127 0" result="hardAlpha"/>
<feOffset dy="4"/>
<feGaussianBlur stdDeviation="2"/>
<feComposite in2="hardAlpha" operator="out"/>
<feColorMatrix type="matrix" values="0 0 0 0 0 0 0 0 0 0 0 0 0 0 0 0 0 0 0.25 0"/>
<feBlend mode="normal" in2="BackgroundImageFix" result="effect1_dropShadow_137_341"/>
<feBlend mode="normal" in="SourceGraphic" in2="effect1_dropShadow_137_341" result="shape"/>
<feColorMatrix in="SourceAlpha" type="matrix" values="0 0 0 0 0 0 0 0 0 0 0 0 0 0 0 0 0 0 127 0" result="hardAlpha"/>
<feOffset dy="-5"/>
<feGaussianBlur stdDeviation="0.5"/>
<feComposite in2="hardAlpha" operator="arithmetic" k2="-1" k3="1"/>
<feColorMatrix type="matrix" values="0 0 0 0 0 0 0 0 0 0 0 0 0 0 0 0 0 0 0.25 0"/>
<feBlend mode="normal" in2="shape" result="effect2_innerShadow_137_341"/>
</filter>
</defs>
</svg>
