<svg width="39" height="38" viewBox="0 0 39 38" fill="none" xmlns="http://www.w3.org/2000/svg">
<path d="M19.5 3.16666C10.76 3.16666 3.66666 10.26 3.66666 19C3.66666 27.74 10.76 34.8333 19.5 34.8333C28.24 34.8333 35.3333 27.74 35.3333 19C35.3333 10.26 28.24 3.16666 19.5 3.16666ZM19.5 31.6667C12.5017 31.6667 6.83333 25.9983 6.83333 19C6.83333 12.0017 12.5017 6.33332 19.5 6.33332C26.4983 6.33332 32.1667 12.0017 32.1667 19C32.1667 25.9983 26.4983 31.6667 19.5 31.6667Z" fill="#F28B07"/>
<path d="M19.5 26.9167C23.8723 26.9167 27.4167 23.3722 27.4167 19C27.4167 14.6277 23.8723 11.0833 19.5 11.0833C15.1277 11.0833 11.5833 14.6277 11.5833 19C11.5833 23.3722 15.1277 26.9167 19.5 26.9167Z" fill="#F28B07"/>
</svg>
