<svg width="21" height="21" viewBox="0 0 21 21" fill="none" xmlns="http://www.w3.org/2000/svg">
<path d="M19.1882 13.6C18.9508 13.4821 18.6763 13.4633 18.425 13.5477C18.1738 13.6321 17.9663 13.8127 17.8482 14.05C17.2152 15.3282 16.2521 16.414 15.0585 17.1948C13.8648 17.9756 12.4842 18.4231 11.0594 18.491C9.63473 18.5588 8.21778 18.2445 6.95537 17.5806C5.69296 16.9167 4.631 15.9274 3.87949 14.7151C3.12797 13.5028 2.71424 12.1116 2.68113 10.6857C2.64802 9.25975 2.99675 7.85088 3.69119 6.60502C4.38564 5.35915 5.40054 4.32161 6.63078 3.59985C7.86101 2.87809 9.26185 2.49837 10.6882 2.50001C12.1793 2.49355 13.642 2.90764 14.9085 3.69476C16.1749 4.48188 17.1938 5.61012 17.8482 6.95001C17.9675 7.1887 18.1768 7.37021 18.43 7.4546C18.6832 7.53899 18.9595 7.51936 19.1982 7.40001C19.4369 7.28066 19.6184 7.07138 19.7028 6.81821C19.7872 6.56503 19.7675 6.2887 19.6482 6.05001C18.6448 4.03075 16.9884 2.40987 14.9479 1.45044C12.9074 0.491008 10.6025 0.249349 8.40738 0.764685C6.21224 1.28002 4.2557 2.5221 2.8553 4.28933C1.45491 6.05656 0.692871 8.24519 0.692871 10.5C0.692871 12.7548 1.45491 14.9435 2.8553 16.7107C4.2557 18.4779 6.21224 19.72 8.40738 20.2353C10.6025 20.7507 12.9074 20.509 14.9479 19.5496C16.9884 18.5901 18.6448 16.9693 19.6482 14.95C19.7078 14.8314 19.7431 14.7021 19.7522 14.5696C19.7613 14.4372 19.744 14.3043 19.7011 14.1786C19.6583 14.0529 19.5909 13.937 19.5028 13.8377C19.4148 13.7384 19.3078 13.6576 19.1882 13.6ZM19.6882 9.50001H10.0982L12.3982 7.21001C12.4914 7.11677 12.5654 7.00608 12.6158 6.88426C12.6663 6.76244 12.6923 6.63187 12.6923 6.50001C12.6923 6.36815 12.6663 6.23758 12.6158 6.11576C12.5654 5.99394 12.4914 5.88325 12.3982 5.79001C12.3049 5.69677 12.1942 5.62281 12.0724 5.57235C11.9506 5.52189 11.82 5.49592 11.6882 5.49592C11.5563 5.49592 11.4257 5.52189 11.3039 5.57235C11.1821 5.62281 11.0714 5.69677 10.9782 5.79001L6.97818 9.79001C6.88714 9.88511 6.81577 9.99726 6.76818 10.12C6.66816 10.3635 6.66816 10.6365 6.76818 10.88C6.81577 11.0028 6.88714 11.1149 6.97818 11.21L10.9782 15.21C11.0711 15.3037 11.1817 15.3781 11.3036 15.4289C11.4255 15.4797 11.5562 15.5058 11.6882 15.5058C11.8202 15.5058 11.9509 15.4797 12.0728 15.4289C12.1946 15.3781 12.3052 15.3037 12.3982 15.21C12.4919 15.117 12.5663 15.0064 12.6171 14.8846C12.6678 14.7627 12.694 14.632 12.694 14.5C12.694 14.368 12.6678 14.2373 12.6171 14.1154C12.5663 13.9936 12.4919 13.883 12.3982 13.79L10.0982 11.5H19.6882C19.9534 11.5 20.2077 11.3947 20.3953 11.2071C20.5828 11.0196 20.6882 10.7652 20.6882 10.5C20.6882 10.2348 20.5828 9.98044 20.3953 9.7929C20.2077 9.60537 19.9534 9.50001 19.6882 9.50001Z" fill="white"/>
</svg>
