<svg width="37" height="49" viewBox="0 0 37 49" fill="none" xmlns="http://www.w3.org/2000/svg">
<g filter="url(#filter0_di_1249_3428)">
<mask id="path-1-outside-1_1249_3428" maskUnits="userSpaceOnUse" x="4.96021" y="0.551147" width="28" height="41" fill="black">
<rect fill="white" x="4.96021" y="0.551147" width="28" height="41"/>
<path fill-rule="evenodd" clip-rule="evenodd" d="M29.3839 21.8633C30.8655 19.7645 31.7359 17.2034 31.7359 14.439C31.7359 7.32123 25.9658 1.55115 18.848 1.55115C11.7303 1.55115 5.96021 7.32123 5.96021 14.439C5.96021 16.7157 6.55056 18.8545 7.58654 20.7107L7.56195 20.7106L18.8477 38.9643L29.3839 21.8633Z"/>
</mask>
<path fill-rule="evenodd" clip-rule="evenodd" d="M29.3839 21.8633C30.8655 19.7645 31.7359 17.2034 31.7359 14.439C31.7359 7.32123 25.9658 1.55115 18.848 1.55115C11.7303 1.55115 5.96021 7.32123 5.96021 14.439C5.96021 16.7157 6.55056 18.8545 7.58654 20.7107L7.56195 20.7106L18.8477 38.9643L29.3839 21.8633Z" fill="#00AFF7"/>
<path d="M29.3839 21.8633L28.5669 21.2865L28.5489 21.3121L28.5325 21.3387L29.3839 21.8633ZM7.58654 20.7107L7.58112 21.7107L9.29505 21.72L8.45975 20.2234L7.58654 20.7107ZM7.56195 20.7106L7.56737 19.7106L5.76193 19.7008L6.71139 21.2365L7.56195 20.7106ZM18.8477 38.9643L17.9972 39.4902L18.8492 40.8683L19.6991 39.4889L18.8477 38.9643ZM30.7359 14.439C30.7359 16.9902 29.9334 19.351 28.5669 21.2865L30.2008 22.44C31.7977 20.178 32.7359 17.4166 32.7359 14.439H30.7359ZM18.848 2.55115C25.4135 2.55115 30.7359 7.87351 30.7359 14.439H32.7359C32.7359 6.76894 26.5181 0.551147 18.848 0.551147V2.55115ZM6.96021 14.439C6.96021 7.87351 12.2826 2.55115 18.848 2.55115V0.551147C11.178 0.551147 4.96021 6.76894 4.96021 14.439H6.96021ZM8.45975 20.2234C7.50477 18.5123 6.96021 16.5407 6.96021 14.439H4.96021C4.96021 16.8906 5.59635 19.1967 6.71334 21.1981L8.45975 20.2234ZM7.55652 21.7106L7.58112 21.7107L7.59197 19.7108L7.56737 19.7106L7.55652 21.7106ZM19.6983 38.4384L8.41251 20.1847L6.71139 21.2365L17.9972 39.4902L19.6983 38.4384ZM28.5325 21.3387L17.9963 38.4398L19.6991 39.4889L30.2352 22.3878L28.5325 21.3387Z" fill="#00096B" mask="url(#path-1-outside-1_1249_3428)"/>
<path d="M18.8481 6.6366C15.3018 6.6366 12.4294 7.03776 12.4294 9.84591V17.8692C12.4294 18.5753 12.7424 19.2091 13.2318 19.6504V21.0785C13.2318 21.5198 13.5928 21.8808 14.0341 21.8808H14.8364C15.2777 21.8808 15.6388 21.5198 15.6388 21.0785V20.2762H22.0574V21.0785C22.0574 21.5198 22.4184 21.8808 22.8597 21.8808H23.662C24.1033 21.8808 24.4644 21.5198 24.4644 21.0785V19.6504C24.9538 19.2091 25.2667 18.5753 25.2667 17.8692V9.84591C25.2667 7.03776 22.3944 6.6366 18.8481 6.6366ZM23.3893 9.03556H14.3069C14.7482 8.61033 15.8875 8.24125 18.8481 8.24125C21.8087 8.24125 22.948 8.61033 23.3893 9.03556ZM23.662 10.6402V13.0552H14.0341V10.6402H23.662ZM23.3893 18.4549L23.1566 18.6715H14.5396L14.3069 18.4549C14.2026 18.3666 14.0341 18.1661 14.0341 17.8692V14.6599H23.662V17.8692C23.662 18.1661 23.4936 18.3666 23.3893 18.4549Z" fill="#F9FCFF"/>
<path d="M16.0399 17.8692C16.7046 17.8692 17.2434 17.3304 17.2434 16.6657C17.2434 16.001 16.7046 15.4622 16.0399 15.4622C15.3753 15.4622 14.8364 16.001 14.8364 16.6657C14.8364 17.3304 15.3753 17.8692 16.0399 17.8692Z" fill="#F9FCFF"/>
<path d="M21.6562 17.8692C22.3209 17.8692 22.8597 17.3304 22.8597 16.6657C22.8597 16.001 22.3209 15.4622 21.6562 15.4622C20.9916 15.4622 20.4527 16.001 20.4527 16.6657C20.4527 17.3304 20.9916 17.8692 21.6562 17.8692Z" fill="#F9FCFF"/>
</g>
<defs>
<filter id="filter0_di_1249_3428" x="0.960205" y="-0.448853" width="35.7756" height="49.3171" filterUnits="userSpaceOnUse" color-interpolation-filters="sRGB">
<feFlood flood-opacity="0" result="BackgroundImageFix"/>
<feColorMatrix in="SourceAlpha" type="matrix" values="0 0 0 0 0 0 0 0 0 0 0 0 0 0 0 0 0 0 127 0" result="hardAlpha"/>
<feOffset dy="4"/>
<feGaussianBlur stdDeviation="2"/>
<feComposite in2="hardAlpha" operator="out"/>
<feColorMatrix type="matrix" values="0 0 0 0 0 0 0 0 0 0 0 0 0 0 0 0 0 0 0.25 0"/>
<feBlend mode="normal" in2="BackgroundImageFix" result="effect1_dropShadow_1249_3428"/>
<feBlend mode="normal" in="SourceGraphic" in2="effect1_dropShadow_1249_3428" result="shape"/>
<feColorMatrix in="SourceAlpha" type="matrix" values="0 0 0 0 0 0 0 0 0 0 0 0 0 0 0 0 0 0 127 0" result="hardAlpha"/>
<feOffset dy="-5"/>
<feGaussianBlur stdDeviation="0.5"/>
<feComposite in2="hardAlpha" operator="arithmetic" k2="-1" k3="1"/>
<feColorMatrix type="matrix" values="0 0 0 0 0 0 0 0 0 0 0 0 0 0 0 0 0 0 0.25 0"/>
<feBlend mode="normal" in2="shape" result="effect2_innerShadow_1249_3428"/>
</filter>
</defs>
</svg>
