<svg width="128" height="39" viewBox="0 0 128 39" fill="none" xmlns="http://www.w3.org/2000/svg">
<rect width="128" height="39" rx="19.5" fill="#0078C9"/>
<path d="M46.9977 22.6C46.7603 22.4821 46.4858 22.4633 46.2345 22.5477C45.9833 22.6321 45.7758 22.8127 45.6577 23.05C45.0247 24.3282 44.0616 25.414 42.8679 26.1948C41.6743 26.9756 40.2936 27.4231 38.8689 27.491C37.4442 27.5588 36.0273 27.2445 34.7649 26.5806C33.5024 25.9167 32.4405 24.9274 31.689 23.7151C30.9375 22.5028 30.5237 21.1116 30.4906 19.6857C30.4575 18.2597 30.8062 16.8509 31.5007 15.605C32.1951 14.3592 33.21 13.3216 34.4403 12.5999C35.6705 11.8781 37.0713 11.4984 38.4977 11.5C39.9888 11.4936 41.4515 11.9076 42.718 12.6948C43.9844 13.4819 45.0033 14.6101 45.6577 15.95C45.777 16.1887 45.9863 16.3702 46.2395 16.4546C46.4926 16.539 46.769 16.5194 47.0077 16.4C47.2464 16.2807 47.4279 16.0714 47.5123 15.8182C47.5966 15.565 47.577 15.2887 47.4577 15.05C46.4543 13.0308 44.7979 11.4099 42.7574 10.4504C40.7169 9.49101 38.412 9.24935 36.2169 9.76469C34.0217 10.28 32.0652 11.5221 30.6648 13.2893C29.2644 15.0566 28.5023 17.2452 28.5023 19.5C28.5023 21.7548 29.2644 23.9435 30.6648 25.7107C32.0652 27.4779 34.0217 28.72 36.2169 29.2353C38.412 29.7507 40.7169 29.509 42.7574 28.5496C44.7979 27.5901 46.4543 25.9693 47.4577 23.95C47.5172 23.8314 47.5526 23.7021 47.5617 23.5696C47.5708 23.4372 47.5534 23.3043 47.5106 23.1786C47.4678 23.0529 47.4004 22.937 47.3123 22.8377C47.2243 22.7384 47.1173 22.6576 46.9977 22.6ZM47.4977 18.5H37.9077L40.2077 16.21C40.3009 16.1168 40.3749 16.0061 40.4253 15.8843C40.4758 15.7624 40.5017 15.6319 40.5017 15.5C40.5017 15.3681 40.4758 15.2376 40.4253 15.1158C40.3749 14.9939 40.3009 14.8832 40.2077 14.79C40.1144 14.6968 40.0037 14.6228 39.8819 14.5723C39.7601 14.5219 39.6295 14.4959 39.4977 14.4959C39.3658 14.4959 39.2352 14.5219 39.1134 14.5723C38.9916 14.6228 38.8809 14.6968 38.7877 14.79L34.7877 18.79C34.6966 18.8851 34.6253 18.9973 34.5777 19.12C34.4776 19.3635 34.4776 19.6365 34.5777 19.88C34.6253 20.0028 34.6966 20.1149 34.7877 20.21L38.7877 24.21C38.8806 24.3037 38.9912 24.3781 39.1131 24.4289C39.2349 24.4797 39.3656 24.5058 39.4977 24.5058C39.6297 24.5058 39.7604 24.4797 39.8822 24.4289C40.0041 24.3781 40.1147 24.3037 40.2077 24.21C40.3014 24.117 40.3758 24.0064 40.4265 23.8846C40.4773 23.7627 40.5035 23.632 40.5035 23.5C40.5035 23.368 40.4773 23.2373 40.4265 23.1154C40.3758 22.9936 40.3014 22.883 40.2077 22.79L37.9077 20.5H47.4977C47.7629 20.5 48.0172 20.3947 48.2048 20.2071C48.3923 20.0196 48.4977 19.7652 48.4977 19.5C48.4977 19.2348 48.3923 18.9804 48.2048 18.7929C48.0172 18.6054 47.7629 18.5 47.4977 18.5Z" fill="white"/>
<path d="M58.7555 25V15.0059H60.8746V23.25H64.9283V25H58.7555ZM73.4527 21.165C73.4527 21.8031 73.3661 22.3682 73.193 22.8604C73.0243 23.3525 72.776 23.7695 72.4478 24.1113C72.1243 24.4486 71.7324 24.7038 71.2721 24.877C70.8163 25.0501 70.3014 25.1367 69.7271 25.1367C69.1894 25.1367 68.6949 25.0501 68.2437 24.877C67.7971 24.7038 67.4075 24.4486 67.0748 24.1113C66.7467 23.7695 66.4915 23.3525 66.3092 22.8604C66.1314 22.3682 66.0426 21.8031 66.0426 21.165C66.0426 20.3174 66.193 19.5996 66.4937 19.0117C66.7945 18.4238 67.2229 17.9772 67.7789 17.6719C68.3349 17.3665 68.998 17.2139 69.7682 17.2139C70.4837 17.2139 71.1171 17.3665 71.6685 17.6719C72.2245 17.9772 72.6598 18.4238 72.9742 19.0117C73.2932 19.5996 73.4527 20.3174 73.4527 21.165ZM68.1685 21.165C68.1685 21.6663 68.2232 22.0879 68.3326 22.4297C68.442 22.7715 68.6129 23.029 68.8453 23.2021C69.0777 23.3753 69.3808 23.4619 69.7545 23.4619C70.1236 23.4619 70.4221 23.3753 70.65 23.2021C70.8824 23.029 71.051 22.7715 71.1559 22.4297C71.2652 22.0879 71.3199 21.6663 71.3199 21.165C71.3199 20.6592 71.2652 20.2399 71.1559 19.9072C71.051 19.57 70.8824 19.3171 70.65 19.1484C70.4176 18.9798 70.1145 18.8955 69.7408 18.8955C69.1894 18.8955 68.7883 19.0846 68.5377 19.4629C68.2916 19.8411 68.1685 20.4085 68.1685 21.165ZM77.4107 28.3633C76.3443 28.3633 75.5286 28.1764 74.9635 27.8027C74.4029 27.4336 74.1227 26.9141 74.1227 26.2441C74.1227 25.7839 74.2662 25.3988 74.5533 25.0889C74.8404 24.779 75.262 24.5579 75.818 24.4258C75.6038 24.3346 75.4169 24.1865 75.2574 23.9814C75.0979 23.7718 75.0182 23.5508 75.0182 23.3184C75.0182 23.0267 75.1025 22.7852 75.2711 22.5938C75.4397 22.3978 75.6835 22.2064 76.0025 22.0195C75.6015 21.8464 75.2825 21.5684 75.0455 21.1855C74.8131 20.8027 74.6969 20.3516 74.6969 19.832C74.6969 19.276 74.8176 18.8044 75.0592 18.417C75.3053 18.0251 75.6607 17.7266 76.1256 17.5215C76.595 17.3164 77.1646 17.2139 77.8346 17.2139C77.9758 17.2139 78.1399 17.223 78.3268 17.2412C78.5136 17.2594 78.6845 17.2799 78.8394 17.3027C78.999 17.3255 79.106 17.3438 79.1607 17.3574H81.8268V18.417L80.6305 18.7246C80.7398 18.8932 80.8219 19.0732 80.8766 19.2646C80.9312 19.4561 80.9586 19.6589 80.9586 19.873C80.9586 20.6934 80.6715 21.3337 80.0973 21.7939C79.5276 22.2497 78.7346 22.4775 77.7184 22.4775C77.4768 22.4639 77.249 22.4456 77.0348 22.4229C76.9299 22.5049 76.8502 22.5915 76.7955 22.6826C76.7408 22.7738 76.7135 22.8695 76.7135 22.9697C76.7135 23.07 76.7545 23.1543 76.8365 23.2227C76.9231 23.2865 77.0507 23.3366 77.2193 23.373C77.3925 23.4049 77.6067 23.4209 77.8619 23.4209H79.1607C79.9993 23.4209 80.6373 23.6009 81.0748 23.9609C81.5169 24.321 81.7379 24.8496 81.7379 25.5469C81.7379 26.4401 81.3642 27.1328 80.6168 27.625C79.874 28.1172 78.8053 28.3633 77.4107 28.3633ZM77.4996 27.0029C77.9963 27.0029 78.4225 26.9551 78.7779 26.8594C79.1379 26.7682 79.4137 26.6361 79.6051 26.4629C79.7965 26.2943 79.8922 26.0915 79.8922 25.8545C79.8922 25.6631 79.8352 25.5104 79.7213 25.3965C79.6119 25.2871 79.4433 25.2096 79.2154 25.1641C78.9921 25.1185 78.705 25.0957 78.3541 25.0957H77.274C77.0188 25.0957 76.7887 25.1367 76.5836 25.2188C76.3831 25.3008 76.2236 25.4147 76.1051 25.5605C75.9866 25.7109 75.9273 25.8841 75.9273 26.0801C75.9273 26.3672 76.0641 26.5928 76.3375 26.7568C76.6155 26.9209 77.0029 27.0029 77.4996 27.0029ZM77.8346 21.2061C78.2265 21.2061 78.5136 21.0853 78.6959 20.8438C78.8782 20.6022 78.9693 20.2741 78.9693 19.8594C78.9693 19.3991 78.8736 19.055 78.6822 18.8271C78.4954 18.5947 78.2128 18.4785 77.8346 18.4785C77.4518 18.4785 77.1646 18.5947 76.9732 18.8271C76.7818 19.055 76.6861 19.3991 76.6861 19.8594C76.6861 20.2741 76.7796 20.6022 76.9664 20.8438C77.1578 21.0853 77.4472 21.2061 77.8346 21.2061ZM86.8922 25V15.0059H89.0113V25H86.8922ZM95.7037 17.2139C96.5195 17.2139 97.1757 17.4372 97.6725 17.8838C98.1692 18.3258 98.4176 19.0368 98.4176 20.0166V25H96.3326V20.5361C96.3326 19.9893 96.2324 19.5768 96.0318 19.2988C95.8359 19.0208 95.526 18.8818 95.1021 18.8818C94.4641 18.8818 94.0289 19.0983 93.7965 19.5312C93.5641 19.9642 93.4478 20.5885 93.4478 21.4043V25H91.3629V17.3574H92.9557L93.2359 18.335H93.3521C93.5162 18.0706 93.719 17.8564 93.9605 17.6924C94.2066 17.5283 94.4778 17.4076 94.774 17.3301C95.0748 17.2526 95.3847 17.2139 95.7037 17.2139Z" fill="white"/>
</svg>
