<svg width="70" height="40" viewBox="0 0 70 40" fill="none" xmlns="http://www.w3.org/2000/svg">
<path d="M13.3718 7.81519C13.3244 7.33791 13.1213 6.96714 12.7624 6.70286C12.4034 6.43859 11.9163 6.30645 11.301 6.30645C10.8828 6.30645 10.5298 6.36562 10.2419 6.48395C9.95394 6.59834 9.73306 6.75809 9.57922 6.96319C9.42934 7.1683 9.35439 7.40102 9.35439 7.66135C9.34651 7.8783 9.39187 8.06763 9.49048 8.22935C9.59303 8.39107 9.73306 8.53109 9.91055 8.64943C10.0881 8.76381 10.2932 8.8644 10.5259 8.95117C10.7586 9.03401 11.0071 9.10501 11.2714 9.16417L12.36 9.4245C12.8886 9.54283 13.3737 9.70061 13.8155 9.89783C14.2573 10.0951 14.6399 10.3376 14.9633 10.6256C15.2868 10.9135 15.5372 11.2527 15.7147 11.6432C15.8962 12.0337 15.9889 12.4814 15.9928 12.9863C15.9889 13.7278 15.7995 14.3708 15.4248 14.9151C15.0541 15.4555 14.5176 15.8756 13.8155 16.1753C13.1174 16.4712 12.2752 16.6191 11.2891 16.6191C10.3109 16.6191 9.45892 16.4692 8.73315 16.1694C8.01132 15.8697 7.44728 15.4259 7.041 14.8382C6.63867 14.2465 6.42765 13.5148 6.40793 12.6431H8.88698C8.91459 13.0494 9.03095 13.3886 9.23606 13.6608C9.44512 13.929 9.7232 14.1321 10.0703 14.2702C10.4214 14.4043 10.8178 14.4714 11.2595 14.4714C11.6934 14.4714 12.0701 14.4083 12.3896 14.282C12.7131 14.1558 12.9635 13.9803 13.141 13.7555C13.3185 13.5306 13.4073 13.2723 13.4073 12.9804C13.4073 12.7082 13.3264 12.4794 13.1647 12.2941C13.0069 12.1087 12.7742 11.9509 12.4665 11.8207C12.1628 11.6906 11.7901 11.5722 11.3483 11.4657L10.0289 11.1344C9.00729 10.8859 8.20066 10.4974 7.609 9.96883C7.01734 9.44028 6.72348 8.72831 6.72742 7.83294C6.72348 7.09928 6.91873 6.45831 7.31317 5.91004C7.71155 5.36177 8.25785 4.9338 8.95206 4.62614C9.64628 4.31847 10.4352 4.16464 11.3187 4.16464C12.218 4.16464 13.003 4.31847 13.6735 4.62614C14.348 4.9338 14.8726 5.36177 15.2473 5.91004C15.622 6.45831 15.8153 7.09336 15.8272 7.81519H13.3718ZM20.1892 11.1936V16.4475H17.6687V4.33031H20.1182V8.96301H20.2247C20.4298 8.42657 20.7611 8.00649 21.2187 7.70277C21.6762 7.39511 22.2501 7.24128 22.9404 7.24128C23.5715 7.24128 24.1217 7.37933 24.5911 7.65544C25.0645 7.9276 25.4313 8.32007 25.6916 8.83284C25.9559 9.34167 26.0861 9.95108 26.0821 10.6611V16.4475H23.5616V11.1107C23.5656 10.5506 23.4236 10.1148 23.1356 9.80316C22.8516 9.49156 22.4533 9.33575 21.9405 9.33575C21.5973 9.33575 21.2936 9.40872 21.0293 9.55467C20.769 9.70061 20.5639 9.91361 20.414 10.1937C20.2681 10.4698 20.1931 10.8031 20.1892 11.1936ZM33.8935 12.5781V7.35961H36.414V16.4475H33.9941V14.7968H33.8994C33.6943 15.3293 33.3531 15.7572 32.8758 16.0807C32.4025 16.4041 31.8247 16.5658 31.1423 16.5658C30.5348 16.5658 30.0004 16.4278 29.5389 16.1517C29.0774 15.8756 28.7165 15.4831 28.4561 14.9743C28.1998 14.4654 28.0696 13.856 28.0657 13.146V7.35961H30.5861V12.6964C30.5901 13.2328 30.734 13.6568 31.018 13.9685C31.302 14.2801 31.6827 14.4359 32.1599 14.4359C32.4637 14.4359 32.7477 14.3668 33.0119 14.2288C33.2762 14.0868 33.4892 13.8777 33.6509 13.6016C33.8166 13.3255 33.8974 12.9843 33.8935 12.5781ZM43.2639 7.35961V9.25292H37.7911V7.35961H43.2639ZM39.0336 5.1823H41.554V13.6549C41.554 13.8876 41.5895 14.069 41.6605 14.1992C41.7315 14.3254 41.8301 14.4142 41.9564 14.4654C42.0865 14.5167 42.2364 14.5424 42.406 14.5424C42.5243 14.5424 42.6427 14.5325 42.761 14.5128C42.8793 14.4891 42.9701 14.4714 43.0332 14.4595L43.4296 16.3351C43.3034 16.3745 43.1259 16.4199 42.8971 16.4712C42.6683 16.5264 42.3902 16.5599 42.0629 16.5718C41.4554 16.5954 40.9229 16.5146 40.4654 16.3292C40.0118 16.1438 39.6587 15.8558 39.4063 15.4654C39.1539 15.0749 39.0296 14.5818 39.0336 13.9862V5.1823ZM49.7396 7.35961V9.25292H44.2668V7.35961H49.7396ZM45.5093 5.1823H48.0297V13.6549C48.0297 13.8876 48.0652 14.069 48.1362 14.1992C48.2072 14.3254 48.3059 14.4142 48.4321 14.4654C48.5622 14.5167 48.7121 14.5424 48.8817 14.5424C49.0001 14.5424 49.1184 14.5325 49.2367 14.5128C49.3551 14.4891 49.4458 14.4714 49.5089 14.4595L49.9053 16.3351C49.7791 16.3745 49.6016 16.4199 49.3728 16.4712C49.144 16.5264 48.866 16.5599 48.5386 16.5718C47.9311 16.5954 47.3986 16.5146 46.9411 16.3292C46.4875 16.1438 46.1345 15.8558 45.882 15.4654C45.6296 15.0749 45.5053 14.5818 45.5093 13.9862V5.1823ZM54.0972 4.33031V16.4475H51.5768V4.33031H54.0972ZM60.2579 16.625C59.3231 16.625 58.5184 16.4357 57.8439 16.057C57.1734 15.6744 56.6566 15.134 56.2938 14.4359C55.9309 13.7338 55.7494 12.9035 55.7494 11.945C55.7494 11.0102 55.9309 10.1897 56.2938 9.48367C56.6566 8.77762 57.1674 8.22738 57.8262 7.83294C58.4888 7.4385 59.2659 7.24128 60.1573 7.24128C60.7569 7.24128 61.315 7.33791 61.8317 7.53119C62.3524 7.72052 62.806 8.00649 63.1925 8.3891C63.583 8.7717 63.8867 9.25292 64.1037 9.83275C64.3206 10.4086 64.4291 11.0831 64.4291 11.8562V12.5485H56.7553V10.9865H62.0565C62.0565 10.6236 61.9776 10.3021 61.8199 10.0221C61.6621 9.74203 61.4432 9.52311 61.1631 9.36534C60.887 9.20362 60.5656 9.12276 60.1987 9.12276C59.8161 9.12276 59.4769 9.2115 59.1811 9.389C58.8892 9.56256 58.6604 9.79725 58.4947 10.0931C58.3291 10.385 58.2443 10.7104 58.2403 11.0693V12.5544C58.2403 13.004 58.3232 13.3926 58.4888 13.72C58.6584 14.0473 58.8971 14.2998 59.2047 14.4773C59.5124 14.6548 59.8773 14.7435 60.2993 14.7435C60.5794 14.7435 60.8357 14.7041 61.0685 14.6252C61.3012 14.5463 61.5004 14.428 61.666 14.2702C61.8317 14.1124 61.9579 13.9191 62.0447 13.6904L64.3758 13.8442C64.2575 14.4043 64.0149 14.8934 63.6481 15.3115C63.2852 15.7257 62.8158 16.0491 62.2399 16.2818C61.668 16.5106 61.0073 16.625 60.2579 16.625Z" fill="#0078C9"/>
<path d="M1.64007 23.994V21.6681H12.599V23.994H8.51382V35.0116H5.72522V23.994H1.64007ZM13.3124 35.0116V25.0039H16.0033V26.7501H16.1075C16.29 26.1289 16.5962 25.6598 17.0262 25.3427C17.4562 25.0213 17.9514 24.8606 18.5117 24.8606C18.6507 24.8606 18.8006 24.8693 18.9613 24.8867C19.122 24.904 19.2631 24.9279 19.3848 24.9583V27.4212C19.2545 27.3821 19.0742 27.3473 18.844 27.3169C18.6138 27.2865 18.4031 27.2713 18.212 27.2713C17.8037 27.2713 17.4388 27.3603 17.1174 27.5384C16.8003 27.7122 16.5484 27.9554 16.3616 28.2682C16.1792 28.5809 16.088 28.9414 16.088 29.3497V35.0116H13.3124ZM23.3869 35.2005C22.7483 35.2005 22.1793 35.0898 21.6798 34.8683C21.1803 34.6424 20.785 34.3101 20.494 33.8714C20.2073 33.4284 20.064 32.8767 20.064 32.2165C20.064 31.6605 20.1661 31.1936 20.3702 30.8157C20.5744 30.4378 20.8524 30.1337 21.2042 29.9035C21.556 29.6733 21.9556 29.4996 22.403 29.3823C22.8548 29.265 23.3282 29.1825 23.8234 29.1347C24.4054 29.0739 24.8745 29.0174 25.2307 28.9653C25.5869 28.9088 25.8453 28.8263 26.006 28.7177C26.1668 28.6091 26.2471 28.4484 26.2471 28.2356V28.1965C26.2471 27.7838 26.1168 27.4646 25.8562 27.2387C25.5999 27.0129 25.2351 26.8999 24.7616 26.8999C24.2621 26.8999 23.8646 27.0107 23.5693 27.2322C23.2739 27.4494 23.0785 27.723 22.9829 28.0531L20.4158 27.8447C20.5461 27.2365 20.8024 26.711 21.1846 26.2679C21.5669 25.8205 22.0599 25.4774 22.6636 25.2385C23.2717 24.9952 23.9754 24.8736 24.7746 24.8736C25.3306 24.8736 25.8627 24.9388 26.3709 25.0691C26.8835 25.1994 27.3374 25.4014 27.7326 25.675C28.1322 25.9487 28.4471 26.3005 28.6774 26.7305C28.9076 27.1562 29.0227 27.6666 29.0227 28.2616V35.0116H26.3905V33.6238H26.3123C26.1516 33.9366 25.9365 34.2124 25.6672 34.4513C25.3979 34.6858 25.0743 34.8704 24.6964 35.0051C24.3186 35.1354 23.882 35.2005 23.3869 35.2005ZM24.1817 33.285C24.59 33.285 24.9505 33.2047 25.2633 33.0439C25.576 32.8789 25.8214 32.6574 25.9995 32.3794C26.1776 32.1014 26.2667 31.7865 26.2667 31.4346V30.3726C26.1798 30.4291 26.0603 30.4812 25.9083 30.529C25.7606 30.5724 25.5934 30.6137 25.4066 30.6528C25.2199 30.6875 25.0331 30.7201 24.8463 30.7505C24.6595 30.7766 24.4901 30.8005 24.3381 30.8222C24.0123 30.87 23.7278 30.946 23.4846 31.0502C23.2413 31.1545 23.0524 31.2956 22.9177 31.4737C22.7831 31.6475 22.7158 31.8647 22.7158 32.1253C22.7158 32.5032 22.8526 32.792 23.1262 32.9918C23.4042 33.1873 23.7561 33.285 24.1817 33.285ZM35.6977 35.2071C34.6726 35.2071 33.7909 34.9899 33.0525 34.5555C32.3184 34.1168 31.7537 33.5087 31.3584 32.7312C30.9675 31.9537 30.7721 31.0589 30.7721 30.0469C30.7721 29.0218 30.9697 28.1226 31.365 27.3495C31.7646 26.572 32.3314 25.966 33.0655 25.5317C33.7996 25.093 34.6726 24.8736 35.6847 24.8736C36.5577 24.8736 37.3222 25.0322 37.9781 25.3493C38.634 25.6663 39.153 26.1116 39.5353 26.6849C39.9175 27.2583 40.1282 27.9315 40.1673 28.7047H37.5481C37.4742 28.2052 37.2788 27.8034 36.9617 27.4993C36.649 27.1909 36.2385 27.0367 35.7303 27.0367C35.3003 27.0367 34.9245 27.154 34.6031 27.3886C34.286 27.6188 34.0385 27.9554 33.8604 28.3985C33.6823 28.8415 33.5932 29.3779 33.5932 30.0078C33.5932 30.6463 33.6801 31.1892 33.8538 31.6366C34.0319 32.084 34.2817 32.425 34.6031 32.6595C34.9245 32.8941 35.3003 33.0114 35.7303 33.0114C36.0474 33.0114 36.3319 32.9462 36.5838 32.8159C36.8401 32.6856 37.0507 32.4967 37.2158 32.2491C37.3852 31.9971 37.496 31.6953 37.5481 31.3434H40.1673C40.1238 32.1079 39.9153 32.7812 39.5418 33.3632C39.1726 33.9409 38.6622 34.3926 38.0107 34.7184C37.3591 35.0442 36.5881 35.2071 35.6977 35.2071ZM44.4593 32.1318L44.4658 28.8024H44.8698L48.0753 25.0039H51.2614L46.9547 30.0338H46.2966L44.4593 32.1318ZM41.9443 35.0116V21.6681H44.7199V35.0116H41.9443ZM48.1991 35.0116L45.2542 30.6528L47.1045 28.6917L51.4503 35.0116H48.1991ZM56.7718 35.2071C55.7423 35.2071 54.8563 34.9986 54.1135 34.5816C53.3751 34.1603 52.8061 33.5652 52.4065 32.7964C52.0068 32.0232 51.807 31.1089 51.807 30.0534C51.807 29.0239 52.0068 28.1205 52.4065 27.343C52.8061 26.5655 53.3686 25.9595 54.0939 25.5252C54.8237 25.0908 55.6794 24.8736 56.661 24.8736C57.3212 24.8736 57.9359 24.98 58.5049 25.1929C59.0782 25.4014 59.5777 25.7163 60.0034 26.1376C60.4334 26.5589 60.7679 27.0889 61.0068 27.7274C61.2457 28.3615 61.3651 29.1043 61.3651 29.9556V30.7179H52.9147V28.9979H58.7525C58.7525 28.5983 58.6656 28.2443 58.4918 27.9359C58.3181 27.6275 58.077 27.3864 57.7686 27.2127C57.4646 27.0346 57.1106 26.9455 56.7066 26.9455C56.2853 26.9455 55.9117 27.0433 55.586 27.2387C55.2645 27.4298 55.0126 27.6883 54.8302 28.0141C54.6478 28.3355 54.5544 28.6938 54.55 29.0891V30.7245C54.55 31.2196 54.6412 31.6475 54.8237 32.008C55.0104 32.3685 55.2732 32.6465 55.612 32.842C55.9508 33.0374 56.3526 33.1352 56.8174 33.1352C57.1258 33.1352 57.4081 33.0917 57.6644 33.0049C57.9207 32.918 58.14 32.7877 58.3224 32.6139C58.5049 32.4402 58.6439 32.2273 58.7394 31.9754L61.3065 32.1448C61.1762 32.7616 60.9091 33.3002 60.5051 33.7606C60.1055 34.2167 59.5886 34.5729 58.9544 34.8292C58.3246 35.0811 57.5971 35.2071 56.7718 35.2071ZM63.1764 35.0116V25.0039H65.8673V26.7501H65.9715C66.154 26.1289 66.4602 25.6598 66.8902 25.3427C67.3202 25.0213 67.8154 24.8606 68.3757 24.8606C68.5147 24.8606 68.6646 24.8693 68.8253 24.8867C68.986 24.904 69.1272 24.9279 69.2488 24.9583V27.4212C69.1185 27.3821 68.9382 27.3473 68.708 27.3169C68.4778 27.2865 68.2671 27.2713 68.076 27.2713C67.6677 27.2713 67.3028 27.3603 66.9814 27.5384C66.6643 27.7122 66.4124 27.9554 66.2256 28.2682C66.0432 28.5809 65.952 28.9414 65.952 29.3497V35.0116H63.1764Z" fill="#002582"/>
</svg>
