<svg width="35" height="34" viewBox="0 0 35 34" fill="none" xmlns="http://www.w3.org/2000/svg">
<mask id="mask0_79_2256" style="mask-type:alpha" maskUnits="userSpaceOnUse" x="0" y="0" width="35" height="34">
<circle cx="17.4665" cy="16.8156" r="16.6572" fill="#2697FF"/>
</mask>
<g mask="url(#mask0_79_2256)">
<circle cx="17.4665" cy="16.8156" r="16.6572" fill="#3E9BDE" stroke="#1E1E1E" stroke-width="4"/>
<path d="M17.4068 9.77876C18.5586 9.77876 19.501 10.7211 19.501 11.873C19.501 13.0248 18.5586 13.9671 17.4068 13.9671C16.255 13.9671 15.3127 13.0248 15.3127 11.873C15.3127 10.7211 16.255 9.77876 17.4068 9.77876ZM17.4068 20.2497C20.234 20.2497 23.48 21.6005 23.6894 22.3439H11.1243C11.3651 21.59 14.5902 20.2497 17.4068 20.2497ZM17.4068 7.68457C15.0928 7.68457 13.2185 9.55887 13.2185 11.873C13.2185 14.187 15.0928 16.0613 17.4068 16.0613C19.7209 16.0613 21.5952 14.187 21.5952 11.873C21.5952 9.55887 19.7209 7.68457 17.4068 7.68457ZM17.4068 18.1555C14.6111 18.1555 9.03008 19.5586 9.03008 22.3439V24.4381H25.7836V22.3439C25.7836 19.5586 20.2026 18.1555 17.4068 18.1555Z" fill="#F9FCFF"/>
</g>
</svg>
