<svg width="35" height="34" viewBox="0 0 35 34" fill="none" xmlns="http://www.w3.org/2000/svg">
<mask id="mask0_137_371" style="mask-type:alpha" maskUnits="userSpaceOnUse" x="0" y="0" width="35" height="34">
<circle cx="17.4665" cy="16.6572" r="16.6572" fill="#2697FF"/>
</mask>
<g mask="url(#mask0_137_371)">
<circle cx="17.4665" cy="16.6572" r="16.6572" fill="#3E9BDE" stroke="#1E1E1E" stroke-width="4"/>
<path d="M17.4068 9.62038C18.5586 9.62038 19.501 10.5628 19.501 11.7146C19.501 12.8664 18.5586 13.8088 17.4068 13.8088C16.255 13.8088 15.3127 12.8664 15.3127 11.7146C15.3127 10.5628 16.255 9.62038 17.4068 9.62038ZM17.4068 20.0913C20.234 20.0913 23.48 21.4421 23.6894 22.1855H11.1243C11.3651 21.4316 14.5902 20.0913 17.4068 20.0913ZM17.4068 7.52618C15.0928 7.52618 13.2185 9.40049 13.2185 11.7146C13.2185 14.0287 15.0928 15.903 17.4068 15.903C19.7209 15.903 21.5952 14.0287 21.5952 11.7146C21.5952 9.40049 19.7209 7.52618 17.4068 7.52618ZM17.4068 17.9971C14.6111 17.9971 9.03008 19.4003 9.03008 22.1855V24.2797H25.7836V22.1855C25.7836 19.4003 20.2026 17.9971 17.4068 17.9971Z" fill="#F9FCFF"/>
</g>
</svg>
