<svg width="35" height="34" viewBox="0 0 35 34" fill="none" xmlns="http://www.w3.org/2000/svg">
<mask id="mask0_347_2539" style="mask-type:alpha" maskUnits="userSpaceOnUse" x="0" y="0" width="35" height="34">
<circle cx="17.4665" cy="16.8156" r="16.6572" fill="#2697FF"/>
</mask>
<g mask="url(#mask0_347_2539)">
<circle cx="17.4665" cy="16.8156" r="16.6572" fill="#3E9BDE" stroke="#1E1E1E" stroke-width="2"/>
<path d="M17.4069 9.77876C18.5587 9.77876 19.5011 10.7211 19.5011 11.873C19.5011 13.0248 18.5587 13.9671 17.4069 13.9671C16.2551 13.9671 15.3127 13.0248 15.3127 11.873C15.3127 10.7211 16.2551 9.77876 17.4069 9.77876ZM17.4069 20.2497C20.234 20.2497 23.48 21.6005 23.6894 22.3439H11.1243C11.3651 21.59 14.5902 20.2497 17.4069 20.2497ZM17.4069 7.68457C15.0928 7.68457 13.2185 9.55887 13.2185 11.873C13.2185 14.187 15.0928 16.0613 17.4069 16.0613C19.7209 16.0613 21.5952 14.187 21.5952 11.873C21.5952 9.55887 19.7209 7.68457 17.4069 7.68457ZM17.4069 18.1555C14.6111 18.1555 9.03009 19.5586 9.03009 22.3439V24.4381H25.7836V22.3439C25.7836 19.5586 20.2026 18.1555 17.4069 18.1555Z" fill="#F9FCFF"/>
</g>
</svg>
