<svg width="29" height="28" viewBox="0 0 29 28" fill="none" xmlns="http://www.w3.org/2000/svg">
<path d="M18.9106 3.46619H10.332L4.27177 9.52641V18.105L10.332 24.1652H18.9106L24.9708 18.105V9.52641L18.9106 3.46619ZM22.6709 17.1505L17.9561 21.8653H11.2864L6.57167 17.1505V10.4809L11.2864 5.76608H17.9561L22.6709 10.4809V17.1505Z" fill="#393939"/>
<path d="M14.6213 19.5654C15.2564 19.5654 15.7712 19.0506 15.7712 18.4155C15.7712 17.7804 15.2564 17.2655 14.6213 17.2655C13.9862 17.2655 13.4713 17.7804 13.4713 18.4155C13.4713 19.0506 13.9862 19.5654 14.6213 19.5654Z" fill="#393939"/>
<path d="M13.4713 8.06597H15.7712V16.1156H13.4713V8.06597Z" fill="#393939"/>
</svg>
