<svg width="28" height="28" viewBox="0 0 28 28" fill="none" xmlns="http://www.w3.org/2000/svg">
<path d="M18.0887 3.65048H9.51006L3.44984 9.7107V18.2893L9.51006 24.3495H18.0887L24.1489 18.2893V9.7107L18.0887 3.65048ZM21.849 17.3348L17.1342 22.0496H10.4645L5.74974 17.3348V10.6652L10.4645 5.95038H17.1342L21.849 10.6652V17.3348Z" fill="#393939"/>
<path d="M13.7994 19.7497C14.4345 19.7497 14.9493 19.2349 14.9493 18.5998C14.9493 17.9647 14.4345 17.4498 13.7994 17.4498C13.1643 17.4498 12.6494 17.9647 12.6494 18.5998C12.6494 19.2349 13.1643 19.7497 13.7994 19.7497Z" fill="#393939"/>
<path d="M12.6494 8.25027H14.9493V16.2999H12.6494V8.25027Z" fill="#393939"/>
</svg>
