<svg width="25" height="33" viewBox="0 0 25 33" fill="none" xmlns="http://www.w3.org/2000/svg">
<g filter="url(#filter0_d_79_2878)">
<mask id="path-1-outside-1_79_2878" maskUnits="userSpaceOnUse" x="4.0997" y="0" width="17" height="25" fill="black">
<rect fill="white" x="4.0997" width="17" height="25"/>
<path fill-rule="evenodd" clip-rule="evenodd" d="M18.5289 12.6454C19.3783 11.4421 19.8774 9.97375 19.8774 8.38883C19.8774 4.30809 16.5693 1 12.4885 1C8.40779 1 5.0997 4.30809 5.0997 8.38883C5.0997 9.69411 5.43816 10.9203 6.0321 11.9845L6.01801 11.9845L12.4883 22.4496L18.5289 12.6454Z"/>
</mask>
<path fill-rule="evenodd" clip-rule="evenodd" d="M18.5289 12.6454C19.3783 11.4421 19.8774 9.97375 19.8774 8.38883C19.8774 4.30809 16.5693 1 12.4885 1C8.40779 1 5.0997 4.30809 5.0997 8.38883C5.0997 9.69411 5.43816 10.9203 6.0321 11.9845L6.01801 11.9845L12.4883 22.4496L18.5289 12.6454Z" fill="white"/>
<path d="M18.5289 12.6454L17.7119 12.0687L17.6939 12.0942L17.6775 12.1208L18.5289 12.6454ZM6.0321 11.9845L6.02669 12.9845L7.74059 12.9938L6.90531 11.4972L6.0321 11.9845ZM6.01801 11.9845L6.02342 10.9845L4.21801 10.9747L5.16745 12.5103L6.01801 11.9845ZM12.4883 22.4496L11.6378 22.9755L12.4898 24.3536L13.3397 22.9742L12.4883 22.4496ZM18.8774 8.38883C18.8774 9.76055 18.4462 11.0286 17.7119 12.0687L19.3458 13.2221C20.3105 11.8557 20.8774 10.187 20.8774 8.38883H18.8774ZM12.4885 2C16.017 2 18.8774 4.86038 18.8774 8.38883H20.8774C20.8774 3.75581 17.1216 0 12.4885 0V2ZM6.0997 8.38883C6.0997 4.86038 8.96008 2 12.4885 2V0C7.85551 0 4.0997 3.75581 4.0997 8.38883H6.0997ZM6.90531 11.4972C6.39237 10.5781 6.0997 9.51916 6.0997 8.38883H4.0997C4.0997 9.86906 4.48395 11.2625 5.1589 12.4719L6.90531 11.4972ZM6.0126 12.9844L6.02669 12.9845L6.03752 10.9845L6.02342 10.9845L6.0126 12.9844ZM13.3389 21.9238L6.86857 11.4586L5.16745 12.5103L11.6378 22.9755L13.3389 21.9238ZM17.6775 12.1208L11.637 21.9251L13.3397 22.9742L19.3802 13.1699L17.6775 12.1208Z" fill="#D9D9D9" mask="url(#path-1-outside-1_79_2878)"/>
<path d="M12.4886 3.91553C10.4554 3.91553 8.80863 4.14552 8.80863 5.75549V10.3554C8.80863 10.7602 8.98803 11.1236 9.26862 11.3766V12.1953C9.26862 12.4483 9.47562 12.6553 9.72861 12.6553H10.1886C10.4416 12.6553 10.6486 12.4483 10.6486 12.1953V11.7354H14.3285V12.1953C14.3285 12.4483 14.5355 12.6553 14.7885 12.6553H15.2485C15.5015 12.6553 15.7085 12.4483 15.7085 12.1953V11.3766C15.9891 11.1236 16.1685 10.7602 16.1685 10.3554V5.75549C16.1685 4.14552 14.5217 3.91553 12.4886 3.91553ZM15.0921 5.2909H9.88501C10.138 5.0471 10.7912 4.83551 12.4886 4.83551C14.1859 4.83551 14.8391 5.0471 15.0921 5.2909ZM15.2485 6.21088V7.59545H9.72861V6.21088H15.2485ZM15.0921 10.6912L14.9587 10.8154H10.0184L9.88501 10.6912C9.82521 10.6406 9.72861 10.5256 9.72861 10.3554V8.51542H15.2485V10.3554C15.2485 10.5256 15.1519 10.6406 15.0921 10.6912Z" fill="#004099"/>
<path d="M10.8786 10.3554C11.2597 10.3554 11.5686 10.0465 11.5686 9.6654C11.5686 9.28433 11.2597 8.97541 10.8786 8.97541C10.4975 8.97541 10.1886 9.28433 10.1886 9.6654C10.1886 10.0465 10.4975 10.3554 10.8786 10.3554Z" fill="#004099"/>
<path d="M14.0985 10.3554C14.4796 10.3554 14.7885 10.0465 14.7885 9.6654C14.7885 9.28433 14.4796 8.97541 14.0985 8.97541C13.7174 8.97541 13.4085 9.28433 13.4085 9.6654C13.4085 10.0465 13.7174 10.3554 14.0985 10.3554Z" fill="#004099"/>
</g>
<defs>
<filter id="filter0_d_79_2878" x="0.0997009" y="0" width="24.7777" height="32.3536" filterUnits="userSpaceOnUse" color-interpolation-filters="sRGB">
<feFlood flood-opacity="0" result="BackgroundImageFix"/>
<feColorMatrix in="SourceAlpha" type="matrix" values="0 0 0 0 0 0 0 0 0 0 0 0 0 0 0 0 0 0 127 0" result="hardAlpha"/>
<feOffset dy="4"/>
<feGaussianBlur stdDeviation="2"/>
<feComposite in2="hardAlpha" operator="out"/>
<feColorMatrix type="matrix" values="0 0 0 0 0 0 0 0 0 0 0 0 0 0 0 0 0 0 0.25 0"/>
<feBlend mode="normal" in2="BackgroundImageFix" result="effect1_dropShadow_79_2878"/>
<feBlend mode="normal" in="SourceGraphic" in2="effect1_dropShadow_79_2878" result="shape"/>
</filter>
</defs>
</svg>
