<svg width="90" height="126" viewBox="0 0 90 126" fill="none" xmlns="http://www.w3.org/2000/svg">
<g filter="url(#filter0_d_386_559)">
<mask id="path-1-outside-1_386_559" maskUnits="userSpaceOnUse" x="4.91016" y="0.779419" width="81" height="118" fill="black">
<rect fill="white" x="4.91016" y="0.779419" width="81" height="118"/>
<path fill-rule="evenodd" clip-rule="evenodd" d="M77.0956 63.7997C81.5984 57.3914 84.2435 49.5714 84.2435 41.1306C84.2435 19.3976 66.708 1.77942 45.0768 1.77942C23.4457 1.77942 5.91016 19.3976 5.91016 41.1306C5.91016 48.0823 7.70427 54.6129 10.8527 60.2806L10.7779 60.2802L45.0759 116.015L77.0956 63.7997Z"/>
</mask>
<path fill-rule="evenodd" clip-rule="evenodd" d="M77.0956 63.7997C81.5984 57.3914 84.2435 49.5714 84.2435 41.1306C84.2435 19.3976 66.708 1.77942 45.0768 1.77942C23.4457 1.77942 5.91016 19.3976 5.91016 41.1306C5.91016 48.0823 7.70427 54.6129 10.8527 60.2806L10.7779 60.2802L45.0759 116.015L77.0956 63.7997Z" fill="#004099"/>
<path d="M77.0956 63.7997L76.2774 63.2248L76.2595 63.2503L76.2432 63.277L77.0956 63.7997ZM10.8527 60.2806L10.8472 61.2806L12.5573 61.2899L11.7268 59.795L10.8527 60.2806ZM10.7779 60.2802L10.7834 59.2802L8.98232 59.2704L9.92625 60.8043L10.7779 60.2802ZM45.0759 116.015L44.2242 116.54L45.0774 117.926L45.9283 116.538L45.0759 116.015ZM83.2435 41.1306C83.2435 49.3593 80.6656 56.9797 76.2774 63.2248L77.9139 64.3746C82.5313 57.8032 85.2435 49.7835 85.2435 41.1306H83.2435ZM45.0768 2.77942C66.1513 2.77942 83.2435 19.9454 83.2435 41.1306H85.2435C85.2435 18.8497 67.2647 0.779419 45.0768 0.779419V2.77942ZM6.91016 41.1306C6.91016 19.9454 24.0024 2.77942 45.0768 2.77942V0.779419C22.889 0.779419 4.91016 18.8497 4.91016 41.1306H6.91016ZM11.7268 59.795C8.65894 54.2722 6.91016 47.9082 6.91016 41.1306H4.91016C4.91016 48.2564 6.7496 54.9536 9.97849 60.7662L11.7268 59.795ZM10.7725 61.2802L10.8472 61.2806L10.8581 59.2806L10.7834 59.2802L10.7725 61.2802ZM45.9275 115.491L11.6296 59.7561L9.92625 60.8043L44.2242 116.54L45.9275 115.491ZM76.2432 63.277L44.2234 115.493L45.9283 116.538L77.9481 64.3225L76.2432 63.277Z" fill="#00096B" mask="url(#path-1-outside-1_386_559)"/>
<path d="M63.6576 34.1987C64.4701 33.3862 64.4701 32.0737 63.6576 31.2612L57.7618 25.3654C56.9493 24.5529 55.6368 24.5529 54.8243 25.3654L45.4701 34.7195L37.3659 26.6154C35.7409 24.9904 33.0951 24.9904 31.4701 26.6154L27.5118 30.5737C25.8868 32.1987 25.8868 34.8445 27.5118 36.4695L35.6159 44.5737L26.2201 53.9695V62.8029H35.0534L44.4701 53.3862L52.5743 61.4904C54.5534 63.4695 57.2201 62.7404 58.4701 61.4904L62.4284 57.532C64.0534 55.907 64.0534 53.2612 62.4284 51.6362L54.3243 43.532L63.6576 34.1987ZM30.4701 33.5112L34.4076 29.5529L37.0534 32.1987L34.5951 34.6779L37.5326 37.6154L40.0118 35.1362L42.5118 37.6362L38.5534 41.5945L30.4701 33.5112ZM53.8659 49.0112L51.3868 51.4904L54.3243 54.4279L56.8034 51.9487L59.4493 54.5945L55.4909 58.5529L47.3868 50.4487L51.3451 46.4904L53.8659 49.0112ZM33.3243 58.6362H30.3868V55.6987L50.4076 35.6779L53.3451 38.6154L33.3243 58.6362ZM53.3451 32.7195L56.2826 29.782L59.2201 32.7195L56.2826 35.657L53.3451 32.7195Z" fill="white"/>
</g>
<defs>
<filter id="filter0_d_386_559" x="0.910156" y="0.779419" width="88.3334" height="125.146" filterUnits="userSpaceOnUse" color-interpolation-filters="sRGB">
<feFlood flood-opacity="0" result="BackgroundImageFix"/>
<feColorMatrix in="SourceAlpha" type="matrix" values="0 0 0 0 0 0 0 0 0 0 0 0 0 0 0 0 0 0 127 0" result="hardAlpha"/>
<feOffset dy="4"/>
<feGaussianBlur stdDeviation="2"/>
<feComposite in2="hardAlpha" operator="out"/>
<feColorMatrix type="matrix" values="0 0 0 0 0 0 0 0 0 0 0 0 0 0 0 0 0 0 0.25 0"/>
<feBlend mode="normal" in2="BackgroundImageFix" result="effect1_dropShadow_386_559"/>
<feBlend mode="normal" in="SourceGraphic" in2="effect1_dropShadow_386_559" result="shape"/>
</filter>
</defs>
</svg>
