<svg width="90" height="126" viewBox="0 0 90 126" fill="none" xmlns="http://www.w3.org/2000/svg">
<g filter="url(#filter0_d_764_2765)">
<mask id="path-1-outside-1_764_2765" maskUnits="userSpaceOnUse" x="4.91016" y="0.473938" width="81" height="118" fill="black">
<rect fill="white" x="4.91016" y="0.473938" width="81" height="118"/>
<path fill-rule="evenodd" clip-rule="evenodd" d="M77.0956 63.4942C81.5984 57.086 84.2435 49.2659 84.2435 40.8252C84.2435 19.0921 66.708 1.47394 45.0768 1.47394C23.4457 1.47394 5.91016 19.0921 5.91016 40.8252C5.91016 47.7768 7.70427 54.3074 10.8527 59.9751L10.7779 59.9747L45.0759 115.71L77.0956 63.4942Z"/>
</mask>
<path fill-rule="evenodd" clip-rule="evenodd" d="M77.0956 63.4942C81.5984 57.086 84.2435 49.2659 84.2435 40.8252C84.2435 19.0921 66.708 1.47394 45.0768 1.47394C23.4457 1.47394 5.91016 19.0921 5.91016 40.8252C5.91016 47.7768 7.70427 54.3074 10.8527 59.9751L10.7779 59.9747L45.0759 115.71L77.0956 63.4942Z" fill="#004099"/>
<path d="M77.0956 63.4942L76.2774 62.9193L76.2595 62.9449L76.2432 62.9715L77.0956 63.4942ZM10.8527 59.9751L10.8472 60.9751L12.5573 60.9845L11.7268 59.4895L10.8527 59.9751ZM10.7779 59.9747L10.7834 58.9748L8.98232 58.9649L9.92625 60.4988L10.7779 59.9747ZM45.0759 115.71L44.2242 116.234L45.0774 117.62L45.9283 116.233L45.0759 115.71ZM83.2435 40.8252C83.2435 49.0538 80.6656 56.6742 76.2774 62.9193L77.9139 64.0691C82.5313 57.4977 85.2435 49.478 85.2435 40.8252H83.2435ZM45.0768 2.47394C66.1513 2.47394 83.2435 19.6399 83.2435 40.8252H85.2435C85.2435 18.5442 67.2647 0.473938 45.0768 0.473938V2.47394ZM6.91016 40.8252C6.91016 19.6399 24.0024 2.47394 45.0768 2.47394V0.473938C22.889 0.473938 4.91016 18.5442 4.91016 40.8252H6.91016ZM11.7268 59.4895C8.65894 53.9667 6.91016 47.6027 6.91016 40.8252H4.91016C4.91016 47.9509 6.7496 54.6481 9.97849 60.4607L11.7268 59.4895ZM10.7725 60.9747L10.8472 60.9751L10.8581 58.9752L10.7834 58.9748L10.7725 60.9747ZM45.9275 115.186L11.6296 59.4506L9.92625 60.4988L44.2242 116.234L45.9275 115.186ZM76.2432 62.9715L44.2234 115.187L45.9283 116.233L77.9481 64.017L76.2432 62.9715Z" fill="#00096B" mask="url(#path-1-outside-1_764_2765)"/>
</g>
<path d="M28.2435 30.974H24.0768V60.1406C24.0768 62.4323 25.9518 64.3073 28.2435 64.3073H57.4102V60.1406H28.2435V30.974ZM61.5768 22.6406H36.5768C34.2852 22.6406 32.4102 24.5156 32.4102 26.8073V51.8073C32.4102 54.099 34.2852 55.974 36.5768 55.974H61.5768C63.8685 55.974 65.7435 54.099 65.7435 51.8073V26.8073C65.7435 24.5156 63.8685 22.6406 61.5768 22.6406ZM61.5768 51.8073H36.5768V26.8073H61.5768V51.8073ZM40.7435 37.224H57.4102V41.3906H40.7435V37.224ZM40.7435 43.474H49.0768V47.6406H40.7435V43.474ZM40.7435 30.974H57.4102V35.1406H40.7435V30.974Z" fill="white"/>
<defs>
<filter id="filter0_d_764_2765" x="0.910156" y="0.473938" width="88.3334" height="125.147" filterUnits="userSpaceOnUse" color-interpolation-filters="sRGB">
<feFlood flood-opacity="0" result="BackgroundImageFix"/>
<feColorMatrix in="SourceAlpha" type="matrix" values="0 0 0 0 0 0 0 0 0 0 0 0 0 0 0 0 0 0 127 0" result="hardAlpha"/>
<feOffset dy="4"/>
<feGaussianBlur stdDeviation="2"/>
<feComposite in2="hardAlpha" operator="out"/>
<feColorMatrix type="matrix" values="0 0 0 0 0 0 0 0 0 0 0 0 0 0 0 0 0 0 0.25 0"/>
<feBlend mode="normal" in2="BackgroundImageFix" result="effect1_dropShadow_764_2765"/>
<feBlend mode="normal" in="SourceGraphic" in2="effect1_dropShadow_764_2765" result="shape"/>
</filter>
</defs>
</svg>
