<svg width="90" height="126" viewBox="0 0 90 126" fill="none" xmlns="http://www.w3.org/2000/svg">
<g filter="url(#filter0_d_764_2764)">
<mask id="path-1-outside-1_764_2764" maskUnits="userSpaceOnUse" x="4.74341" y="0.167969" width="81" height="118" fill="black">
<rect fill="white" x="4.74341" y="0.167969" width="81" height="118"/>
<path fill-rule="evenodd" clip-rule="evenodd" d="M76.9289 63.1883C81.4317 56.78 84.0767 48.9599 84.0767 40.5192C84.0767 18.7861 66.5412 1.16797 44.9101 1.16797C23.2789 1.16797 5.74341 18.7861 5.74341 40.5192C5.74341 47.4708 7.53752 54.0015 10.6859 59.6692L10.6112 59.6688L44.9091 115.404L76.9289 63.1883Z"/>
</mask>
<path fill-rule="evenodd" clip-rule="evenodd" d="M76.9289 63.1883C81.4317 56.78 84.0767 48.9599 84.0767 40.5192C84.0767 18.7861 66.5412 1.16797 44.9101 1.16797C23.2789 1.16797 5.74341 18.7861 5.74341 40.5192C5.74341 47.4708 7.53752 54.0015 10.6859 59.6692L10.6112 59.6688L44.9091 115.404L76.9289 63.1883Z" fill="#004099"/>
<path d="M76.9289 63.1883L76.1107 62.6133L76.0927 62.6389L76.0764 62.6655L76.9289 63.1883ZM10.6859 59.6692L10.6805 60.6692L12.3905 60.6785L11.5601 59.1836L10.6859 59.6692ZM10.6112 59.6688L10.6166 58.6688L8.81558 58.6589L9.7595 60.1929L10.6112 59.6688ZM44.9091 115.404L44.0575 115.928L44.9106 117.314L45.7616 115.927L44.9091 115.404ZM83.0767 40.5192C83.0767 48.7479 80.4988 56.3682 76.1107 62.6133L77.7471 63.7632C82.3645 57.1918 85.0767 49.172 85.0767 40.5192H83.0767ZM44.9101 2.16797C65.9845 2.16797 83.0767 19.334 83.0767 40.5192H85.0767C85.0767 18.2383 67.0979 0.167969 44.9101 0.167969V2.16797ZM6.74341 40.5192C6.74341 19.334 23.8356 2.16797 44.9101 2.16797V0.167969C22.7222 0.167969 4.74341 18.2383 4.74341 40.5192H6.74341ZM11.5601 59.1836C8.49219 53.6608 6.74341 47.2968 6.74341 40.5192H4.74341C4.74341 47.6449 6.58286 54.3422 9.81174 60.1548L11.5601 59.1836ZM10.6057 60.6688L10.6805 60.6692L10.6914 58.6692L10.6166 58.6688L10.6057 60.6688ZM45.7608 114.88L11.4628 59.1447L9.7595 60.1929L44.0575 115.928L45.7608 114.88ZM76.0764 62.6655L44.0566 114.881L45.7616 115.927L77.7814 63.711L76.0764 62.6655Z" fill="#00096B" mask="url(#path-1-outside-1_764_2764)"/>
</g>
<path d="M38.2851 53.2096L27.7434 42.668L38.2851 32.1263L35.0767 28.918L21.3267 42.668L35.0767 56.418L38.2851 53.2096ZM50.2017 53.2096L60.7434 42.668L50.2017 32.1263L53.4101 28.918L67.1601 42.668L53.4101 56.418L50.2017 53.2096Z" fill="white"/>
<defs>
<filter id="filter0_d_764_2764" x="0.743408" y="0.167969" width="88.3334" height="125.146" filterUnits="userSpaceOnUse" color-interpolation-filters="sRGB">
<feFlood flood-opacity="0" result="BackgroundImageFix"/>
<feColorMatrix in="SourceAlpha" type="matrix" values="0 0 0 0 0 0 0 0 0 0 0 0 0 0 0 0 0 0 127 0" result="hardAlpha"/>
<feOffset dy="4"/>
<feGaussianBlur stdDeviation="2"/>
<feComposite in2="hardAlpha" operator="out"/>
<feColorMatrix type="matrix" values="0 0 0 0 0 0 0 0 0 0 0 0 0 0 0 0 0 0 0.25 0"/>
<feBlend mode="normal" in2="BackgroundImageFix" result="effect1_dropShadow_764_2764"/>
<feBlend mode="normal" in="SourceGraphic" in2="effect1_dropShadow_764_2764" result="shape"/>
</filter>
</defs>
</svg>
