<svg width="90" height="126" viewBox="0 0 90 126" fill="none" xmlns="http://www.w3.org/2000/svg">
<g filter="url(#filter0_d_764_2750)">
<mask id="path-1-outside-1_764_2750" maskUnits="userSpaceOnUse" x="4.74365" y="0.862549" width="81" height="118" fill="black">
<rect fill="white" x="4.74365" y="0.862549" width="81" height="118"/>
<path fill-rule="evenodd" clip-rule="evenodd" d="M76.9291 63.8828C81.4319 57.4746 84.077 49.6545 84.077 41.2138C84.077 19.4807 66.5415 1.86255 44.9103 1.86255C23.2792 1.86255 5.74365 19.4807 5.74365 41.2138C5.74365 48.1654 7.53777 54.696 10.6862 60.3638L10.6114 60.3633L44.9094 116.099L76.9291 63.8828Z"/>
</mask>
<path fill-rule="evenodd" clip-rule="evenodd" d="M76.9291 63.8828C81.4319 57.4746 84.077 49.6545 84.077 41.2138C84.077 19.4807 66.5415 1.86255 44.9103 1.86255C23.2792 1.86255 5.74365 19.4807 5.74365 41.2138C5.74365 48.1654 7.53777 54.696 10.6862 60.3638L10.6114 60.3633L44.9094 116.099L76.9291 63.8828Z" fill="#004099"/>
<path d="M76.9291 63.8828L76.1109 63.3079L76.093 63.3335L76.0767 63.3601L76.9291 63.8828ZM10.6862 60.3638L10.6807 61.3637L12.3908 61.3731L11.5603 59.8782L10.6862 60.3638ZM10.6114 60.3633L10.6169 59.3634L8.81582 59.3535L9.75975 60.8874L10.6114 60.3633ZM44.9094 116.099L44.0577 116.623L44.9109 118.009L45.7618 116.621L44.9094 116.099ZM83.077 41.2138C83.077 49.4425 80.4991 57.0628 76.1109 63.3079L77.7474 64.4578C82.3648 57.8863 85.077 49.8666 85.077 41.2138H83.077ZM44.9103 2.86255C65.9848 2.86255 83.077 20.0285 83.077 41.2138H85.077C85.077 18.9328 67.0982 0.862549 44.9103 0.862549V2.86255ZM6.74365 41.2138C6.74365 20.0285 23.8359 2.86255 44.9103 2.86255V0.862549C22.7225 0.862549 4.74365 18.9328 4.74365 41.2138H6.74365ZM11.5603 59.8782C8.49244 54.3553 6.74365 47.9914 6.74365 41.2138H4.74365C4.74365 48.3395 6.5831 55.0368 9.81198 60.8494L11.5603 59.8782ZM10.6059 61.3633L10.6807 61.3637L10.6916 59.3638L10.6169 59.3634L10.6059 61.3633ZM45.761 115.574L11.4631 59.8393L9.75975 60.8874L44.0577 116.623L45.761 115.574ZM76.0767 63.3601L44.0569 115.576L45.7618 116.621L77.7816 64.4056L76.0767 63.3601Z" fill="#00096B" mask="url(#path-1-outside-1_764_2750)"/>
<path d="M44.2436 44.0709C47.2915 44.0709 53.4103 45.6063 53.4103 48.6543V49.0209C51.1874 51.5876 47.9103 53.2376 44.2436 53.2376C40.5769 53.2376 37.2999 51.5876 35.0769 49.0209V48.6543C35.0769 45.6063 41.1957 44.0709 44.2436 44.0709ZM44.2436 41.7793C41.7228 41.7793 39.6603 39.7168 39.6603 37.1959C39.6603 34.6751 41.7228 32.6126 44.2436 32.6126C46.7644 32.6126 48.8269 34.6751 48.8269 37.1959C48.8269 39.7168 46.7644 41.7793 44.2436 41.7793ZM57.9936 42.2376C57.9936 33.9188 51.9207 28.0293 44.2436 28.0293C36.5665 28.0293 30.4936 33.9188 30.4936 42.2376C30.4936 47.6001 34.9624 54.7043 44.2436 63.1834C53.5249 54.7043 57.9936 47.6001 57.9936 42.2376ZM44.2436 23.4459C53.8686 23.4459 62.5769 30.8251 62.5769 42.2376C62.5769 49.8459 56.4582 58.8522 44.2436 69.2793C32.029 58.8522 25.9103 49.8459 25.9103 42.2376C25.9103 30.8251 34.6186 23.4459 44.2436 23.4459Z" fill="white"/>
</g>
<defs>
<filter id="filter0_d_764_2750" x="0.743652" y="0.862549" width="88.3334" height="125.146" filterUnits="userSpaceOnUse" color-interpolation-filters="sRGB">
<feFlood flood-opacity="0" result="BackgroundImageFix"/>
<feColorMatrix in="SourceAlpha" type="matrix" values="0 0 0 0 0 0 0 0 0 0 0 0 0 0 0 0 0 0 127 0" result="hardAlpha"/>
<feOffset dy="4"/>
<feGaussianBlur stdDeviation="2"/>
<feComposite in2="hardAlpha" operator="out"/>
<feColorMatrix type="matrix" values="0 0 0 0 0 0 0 0 0 0 0 0 0 0 0 0 0 0 0.25 0"/>
<feBlend mode="normal" in2="BackgroundImageFix" result="effect1_dropShadow_764_2750"/>
<feBlend mode="normal" in="SourceGraphic" in2="effect1_dropShadow_764_2750" result="shape"/>
</filter>
</defs>
</svg>
